<svg width="34" height="34" viewBox="0 0 34 34" fill="none" xmlns="http://www.w3.org/2000/svg">
<path d="M3.06459 24.5357L7.27832 20.4465C7.92286 19.821 7.48005 18.7289 6.5819 18.7289H2.36816C1.81588 18.7289 1.36816 19.1766 1.36816 19.7289L1.36816 23.8181C1.36816 24.7018 2.43043 25.1512 3.06459 24.5357Z" fill="white" stroke="white"/>
<path d="M12.5572 31.3937L22.8553 21.0364C23.4608 20.4275 23.0677 19.3889 22.2108 19.3334L13.785 18.7883C13.2746 18.7553 12.8215 19.1128 12.7349 19.617L10.8625 30.5194C10.6972 31.4821 11.8685 32.0864 12.5572 31.3937Z" fill="white" stroke="white"/>
<path d="M12.5562 3.08297L22.8544 13.4403C23.4598 14.0492 23.0667 15.0878 22.2098 15.1433L13.784 15.6884C13.2736 15.7214 12.8205 15.3639 12.7339 14.8597L10.8615 3.95732C10.6962 2.99458 11.8675 2.39028 12.5562 3.08297Z" fill="white" stroke="white"/>
<path d="M3.06361 9.94025L7.27735 14.0295C7.92189 14.655 7.47908 15.7471 6.58092 15.7471L2.36719 15.7471C1.8149 15.7471 1.36719 15.2994 1.36719 14.7471L1.36719 10.6579C1.36719 9.77418 2.42945 9.32482 3.06361 9.94025Z" fill="white" stroke="white"/>
<rect x="2.64648" y="14.2587" width="30.7203" height="5.96254" rx="2.98127" fill="white"/>
</svg>
