<svg width="22" height="24" viewBox="0 0 22 24" fill="none" xmlns="http://www.w3.org/2000/svg">
<path d="M13.5 12H11H8.5C7.94772 12 7.5 12.4477 7.5 13V22C7.5 22.5523 7.05228 23 6.5 23H2C1.44772 23 1 22.5523 1 22V9C1 8.68524 1.14819 8.38885 1.4 8.2L10.4 1.45C10.7556 1.18333 11.2444 1.18333 11.6 1.45L20.6 8.2C20.8518 8.38885 21 8.68524 21 9V22C21 22.5523 20.5523 23 20 23H15.5C14.9477 23 14.5 22.5523 14.5 22V13C14.5 12.4477 14.0523 12 13.5 12Z" fill="black" stroke="black" stroke-width="2"/>
</svg>
