<svg width="3278" height="1918" viewBox="0 0 3278 1918" fill="none" xmlns="http://www.w3.org/2000/svg">
<path d="M2014.26 1092.27L2028.99 1102.32L2033.37 1102.1L2069.97 1089.53L2074.12 1102.93L2071.19 1114.24L2063.28 1120.52L2043.51 1119.26L2015.22 1101.88L2014.26 1092.27Z" fill="#787878"/>
<path d="M2080.26 947.406L2083.41 959.978L2119.02 963.121L2121.51 937.325L2128.39 933.576L2130.26 924.143L2119.02 927.29L2106.53 946.186L2080.26 947.406Z" fill="#787878"/>
<path d="M2152.92 810.52L2158.66 855.537L2172.96 858.68L2174.3 866.776L2164.04 875.339L2183.15 890.766L2220.29 877.4L2223.25 861.576L2246.63 846.986L2255.59 813.17L2262.27 805.973L2255.34 793.907L2277.96 779.919L2275.07 775.873L2264.63 776.521L2263.69 786.129L2249.67 785.991L2249.41 773.169L2244.9 767.786L2237.31 774.678L2237.53 781.009L2226.08 785.339L2204.94 784.006L2177.49 812.765L2152.92 810.52Z" fill="#787878"/>
<path d="M1755.15 748.06V764.713L1759.93 773.708L1763.35 773.306L1769.24 762.581L1765.81 757.774L1764.48 745.887L1759.93 741.657L1755.15 748.06Z" fill="#787878"/>
<path d="M1992.51 748.523L2009.85 771.14L2004.76 777.105L1992.48 774.973L1977.24 761.314L1978.06 752.344L1992.51 748.523Z" fill="#787878"/>
<path d="M1699.51 1278.95L1711.83 1324.93L1711.55 1339.47L1693.52 1358.83L1690.82 1390.29L1760.18 1390.9L1782.73 1399.07L1801.33 1396.65L1790.49 1383.06L1790.53 1344.27L1811.85 1343.36V1328.23L1794.54 1327.51L1791.07 1291.67L1783.78 1291.77L1779.83 1288.22L1775.54 1288.45L1769.84 1299.51H1747.87L1742.78 1294.38L1744.29 1287.12L1738.29 1278.34L1699.51 1278.95Z" fill="#787878"/>
<path d="M1692.04 1266.38L1698.32 1274.54L1706.45 1266.84L1704.07 1258.86L1702.05 1258.71L1692.04 1266.38Z" fill="#787878"/>
<path d="M1037.84 1501.09L1044.85 1507.66L1018.22 1547.22L1008.87 1557.58L1012.11 1602.78L1032.67 1627.74L1015.4 1657.87L1002.32 1663.52H987.363L991.555 1687.03L968.18 1695.06L973.78 1714.82L959.762 1759.55L977.069 1773.67L967.712 1796.72L951.813 1821.69L960.231 1839.1L939.676 1842.39L922.841 1821.69L920.024 1757.2L893.869 1647.66L901.781 1609.36L884.946 1560.41L896.147 1496.86L906.441 1484.61L903.913 1475.33L917.136 1463.26L946.618 1465.28L963.093 1482.87L982.131 1483.2L1001.64 1495.12L995.894 1508.57L997.269 1522.15L1024.9 1520.85L1037.84 1501.09Z" fill="#787878"/>
<path d="M978.056 1864.5L978.996 1885.19L994.892 1883.78L1008.44 1874.82L985.538 1870.12L978.056 1864.5Z" fill="#787878"/>
<path d="M1670.65 677.097L1668.3 681.974L1670.32 685.443L1678.74 683.708H1685.89L1693.65 690.278L1710.16 687.282L1722.3 680.055L1725.4 675.178L1724.94 668.892L1714.02 660.726L1699.39 660.872L1698.16 669.181L1682.77 676.691L1670.65 677.097Z" fill="#787878"/>
<path d="M2684.17 1536.42L2682.9 1628.11L2668.81 1638.44L2667.55 1647.47L2686.76 1660.37L2734.2 1651.34H2758.55L2767.51 1638.41L2821.34 1628.07L2859.78 1639.71L2857.22 1655.21L2862.35 1670.7L2891.84 1665.54L2893.1 1673.27L2873.88 1687.47L2880.28 1692.63L2894.36 1687.47L2890.53 1730.1L2917.44 1750.76L2932.84 1745.6L2940.53 1753.34L2985.4 1746.87L3027.71 1678.4L3043.09 1674.54L3073.84 1617.71L3081.54 1568.65L3062.32 1544.12L3070.01 1538.96L3054.62 1491.16L3037.97 1479.53L3040.53 1414.96L3025.14 1403.34L3021.31 1367.18H3013.61L2987.95 1452.4L2973.87 1453.71L2941.82 1421.41L2959.78 1373.61L2926.47 1367.14L2889.29 1377.47L2879.03 1407.17L2862.38 1411.03L2861.11 1390.37L2793.18 1431.7L2794.46 1447.2L2784.2 1461.39H2758.54L2703.41 1484.63L2684.17 1536.42Z" fill="#787878"/>
<path d="M2917.44 1783.1L2911.04 1808.93L2912.31 1827L2931.53 1825.69L2953.32 1792.13L2917.44 1783.1Z" fill="#787878"/>
<path d="M1998.61 740.687L1994.97 746.897L2011.98 769.224L2017.91 767.31L2027.66 777.533L2031.89 759.615L2042.47 761.312L2042.04 756.176L2024.63 740.938L2021.31 749.894L1998.61 740.687Z" fill="#787878"/>
<path d="M1721.84 708.965L1720.51 711.168L1744.75 736.168L1753.64 723.085L1753.32 717.927L1745.56 708.497L1721.84 708.965Z" fill="#787878"/>
<path d="M2447.17 904.662L2442.43 913.226L2454.71 936.564L2455.08 954.774L2457.31 959.647L2471.73 959.902L2479.89 952.066L2485.82 955.639L2487.01 966.723L2491.74 963.764L2492.03 949.6L2488.06 949.132L2485.57 937.099L2475.52 936.74L2473.03 930.052L2479.17 921.852L2479.27 917.798H2461.43L2447.17 904.662Z" fill="#787878"/>
<path d="M1601.93 627.967L1599.62 633.748L1624.48 650.154L1626.15 650.367L1627.72 645.794L1631.21 643.337L1625.63 637.071H1621.8L1616.56 631.111L1601.93 627.967Z" fill="#787878"/>
<path d="M1562.12 1053.4L1575.27 1052.36L1596.84 1082.85L1576.82 1097.95L1562.34 1094.22L1542.86 1094.48L1539.72 1105.89L1523.39 1106.68L1518.91 1100.57L1524.7 1082.01L1562.12 1053.4Z" fill="#787878"/>
<path d="M1781.96 721.428L1782.54 739.42L1788.61 752.063L1811.4 752.46L1821.66 745.2L1831.74 741.192L1829.28 729.699L1831.56 723.559L1826.43 720.88L1819.38 721.461L1813.85 727.028L1790.66 727.208L1781.96 721.428Z" fill="#787878"/>
<path d="M1871.45 1241.01L1886.87 1240.69L1882.87 1254.2L1878.96 1257.59H1874.18L1870.79 1248.45L1871.45 1241.01Z" fill="#787878"/>
<path d="M1591.46 1144.48H1599.12L1599.55 1122.73L1609.23 1108.67L1608.79 1084.22L1600.01 1084L1584.95 1095.77L1591.23 1107.76L1591.46 1144.48Z" fill="#787878"/>
<path d="M2751.36 1143.61L2740.96 1156.22L2749.48 1158.9L2754.29 1152.18L2751.36 1143.61Z" fill="#787878"/>
<path d="M868.913 1337.04L898.646 1324.07L908.471 1325.01L915.012 1352.32L960.313 1367.38L967.794 1390.46L986.472 1392.81L994.422 1412.58L988.821 1430.46L958.437 1432.81L947.236 1461.53L923.392 1461.06L915.911 1459.65L902.148 1473.01L895.356 1472.36L871.981 1418.21L878.446 1408.53L880.724 1370.23L874.944 1347.43L868.913 1337.04Z" fill="#787878"/>
<path d="M1069.53 1575.7L1092.1 1532.27L1092.93 1495.78L1135.06 1468.61H1158.65L1177.18 1437.22L1180.54 1376.96L1172.96 1360.84L1217.61 1320.09L1219.31 1275.12L1158.65 1245.42L1085.38 1222.52L1050.84 1219.12L1060.13 1199.61L1057.6 1169.92L1050.05 1167.43L1038.88 1189.61L1033.03 1196.94L1018.01 1190.3L967.464 1208.11L950.63 1186.91L953.338 1164.76L937.439 1180.94L919.881 1171.47L918.109 1173.97L918.147 1181.66L933.285 1189.79L910.561 1213.74L896.218 1213.6L881.694 1198.82L865.256 1199.33L863.233 1216.88L872.662 1228.33L861.532 1263.99L848.526 1265L827.825 1278.08L822.768 1303.77L840.723 1322.99L844.012 1319.27L856.622 1315.87L867.388 1334.01L898.207 1320.79L910.164 1321.48L918.402 1350.63L962.37 1364.58L969.955 1387.84L988.671 1390.08L997.594 1412.29L991.563 1432.05L999.437 1442.39L998.283 1457.79L1019.38 1455.79L1038.71 1480.22L1037.19 1497.37L1048.65 1507.05L1021.19 1548.64L1069.53 1575.7Z" fill="#787878"/>
<path d="M799.911 926.412L795.359 925.003L795 933.785L800.601 939.424L804.434 933.785L799.911 926.412Z" fill="#787878"/>
<path d="M808.977 940.141L802.69 943.644L808.613 952.091L811.757 947.865L808.977 940.141Z" fill="#787878"/>
<path d="M829.247 946.465L822.597 946.101L823.287 950.331L828.165 957.382L832.353 952.789L829.247 946.465Z" fill="#787878"/>
<path d="M826.105 938.049L815.266 933.455L813.172 922.55L817.361 920.774L821.553 929.229L825.741 932.406L826.105 938.049Z" fill="#787878"/>
<path d="M815.628 915.864L810.027 914.456L808.977 907.408L803.055 905.314L806.888 901.444L813.86 903.902L819.097 907.087L815.628 915.864Z" fill="#787878"/>
<path d="M2446.55 886.494L2452.15 894.156L2471.08 894.298L2469.17 883.819L2446.55 886.494Z" fill="#787878"/>
<path d="M1771.37 1475.91L1779.14 1478.3L1778.05 1500.5L1786.04 1501.59L1804.39 1485.04L1826.43 1487.43L1832.28 1472.61L1860.17 1447.14L1826.68 1408.59L1826.24 1402.26L1822.55 1401.18L1812.4 1410.54L1786.02 1411.18L1782.33 1444.06L1771.97 1446.44L1771.37 1475.91Z" fill="#787878"/>
<path d="M1779.14 591.009L1784.56 599.932L1782.39 607.05L1782.75 612.688L1784.74 619.442L1795.94 613.085L1809.85 613.444L1819.61 617.452H1844.36L1851.59 600.145L1855.92 593.608V589.241L1840.38 567.383L1826.65 561.928L1815.45 560.662L1805.69 563.767L1806.06 573.593L1792.52 590.72L1779.14 591.009Z" fill="#787878"/>
<path d="M673.282 1010.49L673.102 1023.67H676.137L686.469 1004.38H679.46L673.282 1010.49Z" fill="#787878"/>
<path d="M505.872 166.048L513.06 176.923L516.671 191.446L534.664 195.964L547.273 182.381L558.077 187.839L588.675 190.543L610.278 181.474L613.889 211.386H626.499V198.706L639.108 199.609L670.613 236.785L691.313 249.469L680.514 266.701L685.032 271.219L725.459 279.382L726.362 297.52L737.166 299.33L739.874 272.122L756.964 267.608L769.573 286.649L796.56 299.33L810.072 302.034L819.066 291.159L819.969 273.923L836.156 263.947L841.539 278.475L827.124 303.873L828.93 316.549L837.025 303.873L853.212 289.349L854.115 270.308L845.121 255.78L847.829 244.007L869.433 233.128L879.334 240.392L881.139 303.869L896.423 290.286L905.418 295.74L892.808 317.49L908.995 321.105L932.408 284.831L952.206 305.67L944.115 342.846L924.317 353.725L905.422 344.66L871.247 351.916L874.858 363.693L865.863 378.221L837.974 384.578L806.469 409.069L778.58 446.25L774.969 458.023L793.864 465.283L801.053 483.417L827.137 509.719L868.538 527.853L859.544 569.543L858.641 581.321L869.445 588.576L883.86 569.539L885.666 533.266L908.172 532.363L918.972 511.516L920.781 479.798L949.573 423.585L985.554 436.265L1004.45 462.566L996.354 488.863L1010.77 497.03L1045.85 473.433L1055.75 537.813L1088.16 576.794L1089.06 596.734L1053.08 605.804L1035.99 623.934L1000.01 615.772L982.018 614.865L950.514 639.356L969.409 634.838L992.818 630.325L997.336 635.779L991.05 655.719L991.953 673.858L1002.76 681.113L1013.56 678.405L1018.97 670.242H1026.16L1014.46 691.996L991.949 692.895L982.052 707.423H969.442L965.831 696.544L983.824 678.413L962.22 685.673L961.247 654.854L955.032 651.247L936.136 659.409L934.331 674.836H891.124L854.211 700.246L804.718 716.58L799.335 709.316L824.261 672.111L810.101 658.481L801.107 641.212L782.789 627.228L763.137 625.602L727.913 600.926L472.457 558.952L468.232 541.641L444.819 519.891V501.757L448.434 485.428L446.624 476.367L437.63 467.293L435.824 452.77L459.238 436.436L444.823 358.477L425.025 357.57L407.032 333.977L505.872 166.048Z" fill="#787878"/>
<path d="M417.757 454.157L411.613 465.935L413.744 474.277L417.752 476.776L416.812 480.17L412.511 481.399L413.74 493.791L418.363 498.451L422.049 494.443L417.426 482.377L420.172 472.768L426.926 463.774L422.015 455.428L417.757 454.157Z" fill="#787878"/>
<path d="M438.061 524.752L432.531 526.926L442.684 538.704L445.141 552.648L455.294 563.483L463.896 561.932V547.695L453.455 541.187L438.061 524.752Z" fill="#787878"/>
<path d="M992.288 227.28L985.893 233.747L991.494 242.633L1017.94 245.851L1001.11 228.079L992.288 227.28Z" fill="#787878"/>
<path d="M670.282 119.911L671.076 134.434L642.247 164.309L649.473 188.512L670.282 182.878L682.311 165.103L712.729 153.794L737.546 152.168L718.325 131.179L708.716 138.438L701.49 136.018L697.482 127.133L688.668 118.247L670.282 119.911Z" fill="#787878"/>
<path d="M707.931 77.1343L701.536 88.4439L732.786 99.7535L743.987 82.8059L748.793 94.1195H756.813L772.022 77.1719L753.595 72.3321L746.369 66.6983L736.76 76.3778L707.931 77.1343Z" fill="#787878"/>
<path d="M762.41 99.7451L737.592 110.227V118.285L769.636 130.389L762.41 138.447L767.216 148.924L787.231 140.039H804.066L812.087 152.937L825.707 139.207L822.489 126.272L811.288 130.318L809.7 114.172L815.301 104.493H809.7L800.886 110.131L796.878 113.345L799.297 124.659L792.903 129.499L783.294 128.704L780.874 114.177L762.41 99.7451Z" fill="#787878"/>
<path d="M795.248 74.7145L792.828 82.769L808.038 90.0335L819.24 83.5673L818.446 78.7271L795.248 74.7145Z" fill="#787878"/>
<path d="M807.243 60.985L796.045 65.0311L796.84 70.6739L821.66 69.0479L820.865 63.4093L807.243 60.985Z" fill="#787878"/>
<path d="M860.928 74.7145L859.34 80.3489L855.331 85.9876V94.0504L870.542 91.6304L886.55 105.361H892.151V91.6304L876.143 73.8534L860.928 74.7145Z" fill="#787878"/>
<path d="M901.79 90.8556L908.185 98.1201L902.584 107.801L906.592 118.28L924.223 108.595V101.339L913.815 89.2338L901.79 90.8556Z" fill="#787878"/>
<path d="M925.019 72.2943L925.813 85.1921H947.454L953.055 90.0318L952.261 95.6658L933.039 98.0898L946.66 116.659L965.087 119.877L990.699 108.572L953.849 52.86L942.648 60.1238L943.442 69.8034L930.615 64.9636L925.019 72.2943Z" fill="#787878"/>
<path d="M738.382 163.515L707.964 171.573L690.331 186.924L691.919 203.867L723.963 213.551L716.737 229.7L693.507 215.169L687.113 227.272L702.322 237.75L701.528 254.694L724.757 261.159L752.793 259.533L757.595 250.648L778.404 274.057L792.819 269.221L795.239 253.072L805.646 260.332L807.234 244.182L794.411 236.124L795.206 185.294L784.005 176.409L772.01 192.558L738.382 163.515Z" fill="#787878"/>
<path d="M836.11 199.028L825.707 194.188L820.107 201.448L831.308 219.223L832.102 236.166L856.13 221.643V200.653L864.944 191.768L856.13 185.302H841.715L836.11 199.028Z" fill="#787878"/>
<path d="M887.375 191.764L870.54 205.493L874.548 222.437H884.955L889.757 213.551L896.983 220.811L904.21 220.017L923.431 203.867L887.375 191.764Z" fill="#787878"/>
<path d="M885.749 165.103L881.741 173.162L899.371 179.632L904.178 172.368L885.749 165.103Z" fill="#787878"/>
<path d="M875.345 134.43L857.714 136.85L847.307 146.527L866.53 147.321L860.929 161.846L864.937 168.316L870.538 167.522L884.16 145.737L875.345 134.43Z" fill="#787878"/>
<path d="M905.798 128.8L896.189 132.019L897.778 144.916L913.785 155.394L914.579 163.448L909.777 168.292L912.197 184.441L973.864 204.599L990.699 210.237L1007.53 195.713L987.519 179.564L969.091 184.404L943.48 181.984L933.871 172.304L931.451 145.677L915.444 137.619L905.798 128.8Z" fill="#787878"/>
<path d="M956.231 212.753L938.602 211.123L917.793 219.177L906.592 234.498L909.806 276.473L944.236 278.103L977.074 294.252L1000.31 320.879L1017.94 320.085L1013.13 345.082L997.127 371.709L979.498 379.759L966.671 377.343L960.277 371.709L950.668 384.607L954.676 397.505L968.297 398.295L985.132 390.237L999.547 427.375L1035.6 450.793L1060.42 419.326L1039.61 385.439L1051.64 371.714L1068.47 399.958L1098.89 373.331L1093.29 361.227L1072.48 367.697L1058.07 328.135L1071.69 305.553L1044.45 276.51L1029.24 286.988L1014.82 255.521L984.409 259.567L976.388 221.634L951.571 238.582L949.151 259.567H935.53L937.118 240.997L956.231 212.753Z" fill="#787878"/>
<path d="M966.671 136.056V143.32L949.042 147.365L953.845 155.419L973.86 163.477L996.295 165.901L1012.31 177.206L1028.31 168.317L1017.1 157.011H1031.52L1040.33 147.332L1061.98 144.114V139.274L1049.95 131.216L1051.53 122.326L1085.17 127.96L1134.84 108.597L1116.41 102.963L1121.22 96.4974L1159.66 96.4974L1166.06 90.0318L1088.35 62.5771L1069.92 56.1116L1049.9 70.6393L1027.47 52.07L1015.44 51.2759L1013.02 66.6354L997.812 52.9059L980.183 58.544L983.397 67.4295L1009.84 73.0717L1008.26 85.9695L1022.67 94.8508L1057.94 85.9695L1058.73 98.0731L1029.9 111.803L1012.27 98.0731L996.266 99.6989L1012.27 122.314L1004.25 126.364L992.224 115.882L983.41 121.516L991.43 136.837H1005.05L1001.84 151.361L990.636 149.735L976.221 134.38L966.671 136.056Z" fill="#787878"/>
<path d="M895.287 358.206L880.002 377.427L879.062 398.596L892.428 390.901H908.648L920.1 401.488L930.611 392.811L895.287 358.206Z" fill="#787878"/>
<path d="M1081.38 608.211L1043.19 644.772L1047.02 653.441L1093.77 670.748L1100.45 659.221L1096.63 640L1081.34 641.914L1072.75 632.305L1087.05 617.89L1081.38 608.211Z" fill="#787878"/>
<path d="M1702.26 1275.33L1739.51 1274.69L1747.06 1285.41L1746.77 1293.33L1749.55 1295.85H1768.05L1773.36 1285.41H1780.92L1783.99 1288.51L1794.35 1288.22L1797.42 1324.64L1815.34 1325.22V1328.04L1863.49 1349.76L1865.73 1353.99H1875.81L1874.69 1338.74L1856.48 1330L1857.6 1318.44L1865.44 1300.08L1883.36 1299.5L1867.97 1248.41L1868.25 1226.7L1892.6 1188.62L1892.89 1183.28L1889.23 1181.29L1889.38 1170.96L1884.94 1170.56L1880.46 1164.85L1806.95 1161.53L1793.46 1174.64L1771.39 1160.12L1763.63 1164.89L1758 1212.32L1744.05 1223.09L1739.86 1232.63L1740.61 1246.76L1715.46 1267.31L1708.77 1264.28L1709.67 1268.21L1702.26 1275.33Z" fill="#787878"/>
<path d="M1724.95 1160.95L1741.78 1179.16L1748.43 1170.56L1759.01 1170.99L1761.28 1162.61L1771.69 1156.11L1793.3 1170.99L1805.76 1158.64L1854.13 1160.77L1809.26 1114.45L1815.29 1110.71L1816.12 1102.54L1805.93 1097.74H1790.97L1766.87 1121.62L1766.05 1131.45L1746.93 1130.84L1746.32 1135.03L1733.86 1133.75L1722.62 1155.1L1724.95 1160.95Z" fill="#787878"/>
<path d="M1708.11 1191.55L1707.9 1196.8L1725.16 1197.23L1725.77 1242.07L1709.99 1241.64L1700.85 1234.52L1693.77 1238.49L1693.44 1240.48L1697.09 1242.25L1698.14 1251.46L1688.39 1259.84L1690.48 1264.26L1701.28 1255.88H1706.48L1708.14 1260.89L1715.01 1263.82L1737.04 1245.18L1736.61 1231.56L1741.2 1220.47L1755.33 1209.99L1759.12 1174.56L1749.08 1174.59L1737.45 1190.52L1708.11 1191.55Z" fill="#787878"/>
<path d="M1642.76 674.426L1627 691.192L1627.33 692.884L1633.79 690.866L1639.61 698.962L1649.45 695.493L1656.24 700.772L1659.03 699.184L1667.41 686.034L1665.27 684.011L1657 683.798L1652.99 675.592L1642.76 674.426Z" fill="#787878"/>
<path d="M1495.21 1170.7L1510.67 1159.76L1529.89 1156.39L1549.5 1160.63L1539.49 1145.49L1536.57 1136.24L1539.49 1108.89L1521.97 1109.72L1514.03 1102.14L1497.34 1102.57L1489.4 1103.84L1490.22 1122.34L1486.04 1124.03L1481.01 1133.29L1493.94 1148.42L1495.21 1170.7Z" fill="#787878"/>
<path d="M964.039 1847.55L948.611 1881.45L975.241 1884.26L975.709 1861.68L964.039 1847.55Z" fill="#787878"/>
<path d="M958.796 1842.24L947.198 1855.06L945.79 1870.13L923.355 1857.41L899.511 1823.05L892.502 1810.79L902.328 1798.08L901.387 1782.07L890.187 1777.37L881.301 1770.8L883.178 1761.84L894.847 1758.55L897.195 1706.78L878.99 1696.42L867.104 1426.94L870.175 1421.6L893.442 1475.24L900.886 1475.39L903.306 1483.95L893.405 1495.94L882.024 1560.5L898.211 1610.22L890.73 1647.86L917.102 1758.56L919.886 1823.3L938.781 1845.15L958.796 1842.24Z" fill="#787878"/>
<path d="M881.811 1706.8L877.151 1713.85L879.5 1726.1L884.16 1726.57L886.51 1711.03L881.811 1706.8Z" fill="#787878"/>
<path d="M1660.5 1161.78L1672.13 1172.49L1671.3 1189.03L1735.1 1187.55L1740.3 1181.71L1722.02 1162.02L1719.31 1154.9L1730.95 1133.12L1723.03 1118.66L1716.39 1115.09V1107.75L1724.08 1102.73L1724.51 1079.9L1718.41 1079.21L1718.31 1091.21L1691.51 1141.24L1675.1 1142.08L1663.87 1149.81L1660.5 1161.78Z" fill="#787878"/>
<path d="M2356.24 604.663L2343.74 636.096L2326.5 635.19L2308.33 674.969L2323.75 694.617L2291.97 738.518L2275.64 735.768L2264.72 749.497L2267.43 757.735L2280.15 758.642L2286.51 773.27L2299.23 776.02L2338.28 826.34V851.956L2357.35 863.842L2378.23 860.194L2404.58 875.737L2436.36 884.878L2451.79 883.043L2469.06 881.2L2505.36 857.427L2517.18 859.266L2521.7 869.995L2531.71 872.995L2545.34 893.111L2536.27 913.231L2541.72 926.96L2557.15 932.444L2559.85 948.919L2578.03 950.754L2580.74 942.516L2607.07 928.787L2623.4 929.694L2642.47 950.716L2655.19 945.233L2663.36 946.135L2667.01 956.216L2673.36 957.119L2682.43 944.33L2718.74 930.601L2751.44 891.259L2762.34 853.753L2761.44 829.044L2747.82 826.303L2755.98 817.158L2754.17 802.526L2719.66 767.778V750.404L2729.64 737.607L2739.62 733.018L2740.52 722.937H2715.09L2710.54 736.666L2698.72 733.925L2684.19 718.385L2693.26 694.613L2705.98 680.883L2717.8 681.79L2715.98 702.817L2722.34 708.305L2737.77 692.77L2743.22 691.867L2741.41 679.98L2755.94 662.602L2766.85 663.505L2773.21 643.39L2780.65 639.453L2781.41 626.914L2774.18 619.329L2773.57 599.535L2787.48 598.628L2786.58 547.58L2776.83 553.431L2773.22 566.513L2756.93 566.475L2709.71 539.919L2675.6 498.806L2640.99 498.447L2632.19 506.108L2643.39 531.757L2639.48 555.822L2625.54 561.602L2617.7 560.988L2617.12 584.794L2625.29 586.637L2639.82 580.242L2658.89 589.383V598.528L2645.26 599.43L2634.35 623.203L2624.38 624.101L2588.97 670.744L2551.76 687.215L2526.33 689.058L2509.09 677.172L2484.56 689.995L2458.22 681.757L2451.87 664.379L2407.39 661.633L2383.79 623.232H2373.82L2365.8 605.419L2356.24 604.663Z" fill="#787878"/>
<path d="M2679.33 966.297L2670.7 968.717L2664.48 976.379L2669.65 986.456L2677.23 987.138L2685.87 979.48L2687.92 969.403L2679.33 966.297Z" fill="#787878"/>
<path d="M850.921 1073.27L843.477 1072.51L794.273 1113.08L789.069 1127.35L782.349 1128.11L785.346 1159.65L768.189 1201.74L786.829 1217.52L810.711 1219.04L827.111 1243.1L850.954 1243.86L850.194 1261.88H859.117L868.796 1228.83L859.836 1217.57L862.076 1196.54L880.716 1195.03L878.476 1146.18L836.711 1132.67L827.031 1106.37L850.921 1073.27Z" fill="#787878"/>
<path d="M719.601 1092.06L724.625 1101.89L728.709 1107.31L723.217 1123.6L712.738 1116.23L695.613 1100.55V1090.18L719.601 1092.06Z" fill="#787878"/>
<path d="M732.133 954.557V959.154L751.354 959.514L760.419 954.235L761.828 958.105L780.685 962.694L797.449 977.832L793.617 983.106L794.306 989.108L808.286 992.615L822.267 986.287L828.552 979.963L819.487 975.374L772.703 947.92L756.302 946.148L732.133 954.557Z" fill="#787878"/>
<path d="M1334.41 1039.89L1327.55 1043.83L1332.46 1047.76L1338.35 1044.8L1334.41 1039.89Z" fill="#787878"/>
<path d="M1351.28 1047.84L1346.81 1051.81L1349.99 1057.7L1357.65 1054.27L1351.28 1047.84Z" fill="#787878"/>
<path d="M1341.49 1059L1335.75 1062.43L1341.93 1070.71L1346.81 1068.15L1341.49 1059Z" fill="#787878"/>
<path d="M1896.74 820.598L1901.18 823.82L1887.41 836.857L1880.83 836.64L1875.96 833.208L1876.61 826.817L1886.58 826.169L1896.74 820.598Z" fill="#787878"/>
<path d="M1698.83 658.13H1709.56H1714.83L1723.4 664.237L1739.26 651.05L1723.87 640.071L1708.62 632.694L1698.18 634.575L1684.02 643.678L1698.83 658.13Z" fill="#787878"/>
<path d="M1636.36 596.747L1649.26 594.657V585.555L1660.06 583.778L1665.99 589.743L1672.24 590.428L1681.99 586.198L1690.7 588.656L1698.35 595.31L1699.4 620.198L1707.06 630.387L1696.98 631.796L1680.25 642.307L1681.67 645.814L1696.62 659.832L1695.58 666.84L1681.67 673.849L1668.77 674.209L1665.63 680.854H1659.02L1655.87 673.849L1644.39 671.028L1644.02 659.464L1638.21 656.246L1638.68 648.468L1636.99 642.917L1628.7 635.294L1630.43 623.366L1639.47 619.141L1636.36 596.747Z" fill="#787878"/>
<path d="M1656.7 537.575L1641.72 554.159L1641.17 564.958L1648.01 582.775L1658.7 580.753L1657.37 566.196L1664.74 557.958L1664.6 551.488L1659.39 538.018L1656.7 537.575Z" fill="#787878"/>
<path d="M1664.46 567.993L1660.02 568.95V575.566L1664.74 579.224L1668.9 578.179L1667.89 571.896L1664.46 567.993Z" fill="#787878"/>
<path d="M1678.37 561.698L1674.4 562.66L1669.98 566.706L1671.86 574.873L1677.26 576.992L1671.68 579.229L1670.62 582.092H1679L1681.51 577.498L1678.3 575.918L1679.35 571.897L1683.18 566.861L1682.13 562.505L1678.37 561.698Z" fill="#787878"/>
<path d="M1998.86 1079.63L1996.8 1091.76L2011.12 1091.54L2011.33 1073.69L2006.1 1070.47L1998.86 1079.63Z" fill="#787878"/>
<path d="M942.467 1019.44L939.286 1026.2L943.119 1031.33L947.888 1027.18L942.467 1019.44Z" fill="#787878"/>
<path d="M884.811 1003.4L865.696 990.902L853.629 986.634L851.213 1009.71L853.629 1009.51L856.81 1015.62L860.965 1010.81L873.069 1007.6L883.586 1009.84L884.811 1003.4Z" fill="#787878"/>
<path d="M1646.26 812.114L1631.53 807.157L1570.18 818.684L1556.82 828.836L1564.98 870.998L1540.59 871.972L1525.93 895.569L1490.99 903.949L1491.1 921.105L1606.16 1009.07L1625.77 1010.74L1691.2 959.619L1684.66 951.381L1672.38 949.718L1665.01 937.367V886.24L1660.09 881.292L1660.92 868.106L1647.84 854.92L1646.21 840.902L1651.92 836.781L1649.46 821.931L1646.26 812.114Z" fill="#787878"/>
<path d="M765.911 1203.58L748.826 1214.2L747.597 1229.97L744.166 1235.12L754.932 1245.46L750.272 1250.55L751.354 1263.56L770.609 1268.15L799.765 1233.65L799.694 1221.62L785.713 1220.72L765.911 1203.58Z" fill="#787878"/>
<path d="M638.635 1212L636.395 1221.94L632.24 1226.13L635.095 1231.26L642.427 1228.38L645.929 1222.27L643.689 1215.84L638.635 1212Z" fill="#787878"/>
<path d="M1804.82 509.25L1784.59 508.527L1771.77 516.365L1771.59 522.183L1779.89 530.02L1805.73 534.396L1804.82 509.25Z" fill="#787878"/>
<path d="M1761.66 512.356L1756.19 514.195L1761.66 515.14L1764.15 518.024L1767.12 514.463L1764.16 509.384L1761.66 512.356Z" fill="#787878"/>
<path d="M1763.99 519.67L1756.2 523.152L1753.51 527.795L1756.2 530.813L1766.08 527.156L1770.83 524.013L1763.99 519.67Z" fill="#787878"/>
<path d="M1819.86 868.36L1829.5 868.619L1848.29 873.819L1857.21 874.073L1868.27 864.824H1873.43L1882.83 870.028H1894.72L1896.85 869.881L1904.36 891.489L1906.5 898.46L1908.49 908.901L1904.94 911.5L1898.83 908.433L1891.78 885.454L1885.43 884.99L1884.96 892.793L1889.19 906.301L1923.05 948.208L1923.77 966.201L1913.91 977.581L1821.28 976.532L1819.86 868.36Z" fill="#787878"/>
<path d="M1945.51 1054.92L1944.6 1033.63L1958.91 1016.95L1962.78 1019.91L1969.83 1043.47L2003.64 1068.64L1997.5 1076.2L1972.75 1054.92L1945.51 1054.92Z" fill="#787878"/>
<path d="M1554.06 730.857H1508.03L1498.74 726.661L1494.27 726.987L1488.85 738.255L1490.76 749.853L1508.36 751.479L1510.6 758.88L1502.94 802.054L1503.26 809.79L1515.72 816.548L1530.09 817.518L1558.85 810.438L1572.91 792.746L1573.23 774.72L1598.16 752.172L1599.42 742.2L1576.74 741.874L1554.06 730.857Z" fill="#787878"/>
<path d="M1435.79 906.903L1429.46 910.552L1432.39 913.516L1435.79 906.903Z" fill="#787878"/>
<path d="M1413.82 907.589L1405.98 909.578L1409.89 915.505H1415.77L1413.82 907.589Z" fill="#787878"/>
<path d="M1395.18 901.667L1390.26 906.616L1397.13 912.543L1401.04 903.656L1395.18 901.667Z" fill="#787878"/>
<path d="M1600.09 774.971L1594.34 776.923L1595.62 782.085H1603.92L1607.43 778.219L1600.09 774.971Z" fill="#787878"/>
<path d="M1919.42 1116.55L1945.72 1058.02L1971.84 1058.17L1995 1078.29L1993.37 1094.87H2011.32L2013.16 1104.84L2042.21 1122.22L2060.12 1123.12L2026.06 1159.72L1979.27 1174.13H1967.68L1947.02 1156.5L1938.86 1153.07L1923.03 1129.77L1912.59 1129.91L1911.36 1119.22L1919.42 1116.55Z" fill="#787878"/>
<path d="M1765.15 412.718L1772.64 416.003L1777.25 424.672L1772.64 430.673L1749.44 456.034L1745.46 469.404L1750.77 488.767L1768.65 502.137L1792.5 490.79L1811.72 488.115L1829.6 459.394L1816.34 427.998L1803.73 397.94L1805.72 378.576L1797.78 377.239L1795.72 363.113L1785.02 345.663L1773.17 353.863L1768.52 372.905L1755.94 365.353L1738.45 361.085L1734.55 365.641L1741.27 371.714L1753.52 371.492L1763.37 387.424L1765.15 412.718Z" fill="#787878"/>
<path d="M1046.81 1826.17L1037.3 1825.12L1027.84 1831.48L1034.7 1838.92L1046.81 1826.17Z" fill="#787878"/>
<path d="M1056.27 1821.4L1053.13 1831.47L1044.17 1839.42L1044.71 1842.06L1059.99 1836.21L1066.31 1828.26L1056.27 1821.4Z" fill="#787878"/>
<path d="M1597.56 635.841L1589.58 637.793L1573.62 655.171L1568.81 655.497L1562.42 650.979L1558.27 651.953L1555.08 661.925L1531.75 662.573L1532.4 667.739L1548.36 678.367L1566.9 693.175L1566.58 710.879L1556.68 728.253L1578.1 738.551L1599.85 739.194L1606.57 731.462L1620.3 731.788L1624.13 735.333L1637.86 734.359L1644.9 725.323L1635.94 714.703L1635.29 707.949L1637.21 700.547L1632.73 694.115L1625.07 696.351L1624.1 690.571L1641.04 671.893V660.621L1631.23 657.415L1625.24 653.29L1597.56 635.841Z" fill="#787878"/>
<path d="M1025.78 1152.82L1046.92 1166.01L1035.86 1187.97L1031.85 1193.03L1020.11 1186.28L1020.44 1162.61L1025.78 1152.82Z" fill="#787878"/>
<path d="M2128.56 1443.9L2120.32 1444.44L2119.78 1451.64L2125.27 1452.76L2133.51 1448.9L2128.56 1443.9Z" fill="#787878"/>
<path d="M2031.74 1342.49L2034.48 1348.6H2038.89L2041.09 1340.84L2031.74 1342.49Z" fill="#787878"/>
<path d="M953.306 1038.04L949.473 1041.59L952.327 1047.37L957.745 1045.78L953.306 1038.04Z" fill="#787878"/>
<path d="M1660.53 737.936L1653.48 745.021L1652.84 751.45L1658.58 754.99L1660.82 754.672L1662.09 745.31L1660.53 737.936Z" fill="#787878"/>
<path d="M933.546 1013.98L928.128 1016.22L930.043 1021.02L936.4 1016.87L935.134 1015.57L933.546 1013.98Z" fill="#787878"/>
<path d="M1691.45 1191.95L1691.02 1200.94L1670.65 1200.5L1658.18 1224.6L1687.49 1256.65L1694.74 1250.57L1694.53 1244.29L1689.54 1241.98V1237.56L1700.78 1230.45L1710.76 1238L1721.78 1238.22L1721.56 1200.33L1704.1 1199.51L1703.88 1191.55L1691.45 1191.95Z" fill="#787878"/>
<path d="M1545.97 528.831L1539.36 538.841L1542 542.849H1557.25V549.536L1553.27 554.877L1555.91 568.895L1564.51 585.588L1571.12 600.934L1581.7 604.943L1586.32 612.967L1585.67 620.302L1579.06 624.31L1578.41 627.633L1583.03 630.308L1579.06 635.653L1569.78 639.661L1551.89 637.668L1524.04 650.352L1514.76 645.692L1541.28 630.337L1537.95 628.343L1524.04 627.006L1532.64 614.33L1533.97 603.63L1545.24 602.297L1543.26 581.596L1529.99 580.948L1526.02 576.288L1526.67 560.933L1518.72 561.585L1526.67 534.887L1541.26 524.187L1545.97 528.831Z" fill="#787878"/>
<path d="M1518.16 573.588L1506.23 574.926L1505.58 585.626L1513.53 590.968L1522.13 588.983L1525.46 582.981L1518.16 573.588Z" fill="#787878"/>
<path d="M1940.99 727.823L1952.81 743.249L1967.55 750.04L1976.61 749.999L1992.19 745.777L1996.09 739.671L1950.03 722.44L1940.99 727.823Z" fill="#787878"/>
<path d="M1539.54 1135.67L1543.59 1145.17L1554.14 1161.71L1559.99 1161.49L1575.95 1152.42L1574.83 1100.79L1562.47 1097.18L1545.17 1097.64L1539.54 1135.67Z" fill="#787878"/>
<path d="M1094.42 171.131L1089.5 178.976L1098.35 187.823L1094.42 196.676L1107.21 213.368L1122.93 208.453L1143.56 206.506L1167.14 232.046L1182.86 274.275L1170.11 300.794L1187.78 297.835L1197.62 303.723L1198.59 316.513L1176.99 317.486L1188.76 329.26L1203.5 332.223L1171.09 375.434L1167.16 401.953L1174.02 423.556L1169.11 436.345L1177.96 463.838L1194.65 482.516L1199.56 481.546L1210.36 478.583L1211.34 494.297L1218.2 504.127L1230.96 503.149L1240.79 466.809L1270.27 430.461L1314.49 412.794L1341.98 378.402L1354.73 384.286H1381.25L1402.86 362.687L1429.38 351.887L1432.34 335.195L1415.65 320.454L1400.91 315.543L1393.03 294.909L1411.71 284.109L1441.19 299.824L1451.03 289.024L1435.31 280.177L1468.73 234.984L1462.84 215.333L1447.12 214.363L1453.01 196.692L1472.66 187.84L1512.94 152.478L1501.17 139.718L1455.97 143.651L1432.38 167.248L1446.15 136.793L1430.43 132.855L1421.58 148.574L1408.83 137.77L1373.45 141.703L1383.29 125.989L1441.24 124.037L1426.49 104.385L1363.64 92.6117L1338.1 96.5446L1339.07 109.338L1312.56 100.486L1313.52 91.6338L1294.84 95.5666L1290.91 105.401L1310.56 112.263L1289.93 127.004L1275.19 110.312L1254.56 104.427L1251.6 120.142L1230.96 120.142L1223.09 103.449L1190.68 98.534L1173.01 107.382L1172.03 119.16L1149.46 116.196L1135.69 122.085L1136.67 135.848V142.719L1111.13 147.634L1099.35 139.789L1091.47 152.545L1103.25 165.334L1127.82 162.371L1129.77 170.249L1111.09 179.101L1094.42 171.131Z" fill="#787878"/>
<path d="M1173.03 324.382L1178.92 333.239L1175.96 344.04H1170.07L1162.19 335.183L1164.14 328.316L1173.03 324.382Z" fill="#787878"/>
<path d="M1418.63 299.82L1435.32 304.735L1434.34 318.5L1416.67 309.647L1412.73 304.731L1418.63 299.82Z" fill="#787878"/>
<path d="M1404.25 1068.07L1403.78 1072.08L1428.78 1071.72L1430.05 1068L1429.51 1064.24L1422.31 1067.17L1404.25 1068.07Z" fill="#787878"/>
<path d="M1417 1102.75L1427.99 1119.66L1442.29 1107.23L1456.97 1106.58L1469.18 1122.8L1479.55 1129.64L1483.44 1122.05L1486.91 1120.1L1486.66 1103.41L1479.76 1083.61L1458.59 1085.96L1432.4 1083.87L1432.26 1090.58L1417 1102.75Z" fill="#787878"/>
<path d="M1656.96 1173.09L1655.3 1180.21L1660.28 1182.92L1665.06 1179.35L1663.4 1172.01L1656.96 1173.09Z" fill="#787878"/>
<path d="M1671.95 1192.16L1671.72 1197.19L1688.12 1198.01L1687.91 1192.35L1671.95 1192.16Z" fill="#787878"/>
<path d="M1764.87 776.375L1764.47 781.182L1781.2 789.599L1789.19 792.667L1784.99 797.076L1775.67 798.025L1774.34 802.246L1777.56 809.51L1788 815.069L1792.56 815.47L1793.14 803.011L1799.97 794.769L1781.33 772.735L1783.79 765.258L1788.16 765.078L1794.81 770.424L1799 768.33L1800.33 760.849L1815.93 763.081L1820.67 749.543L1812.51 755.29L1788.56 754.705L1772.98 762.767L1764.87 776.375Z" fill="#787878"/>
<path d="M1801.17 823.306L1807.06 823.486L1809.52 827.135H1818.09L1823.79 825.041L1825.71 827.352L1821.91 832.334L1805.19 832.915L1802.14 828.907L1798.92 826.993L1801.17 823.306Z" fill="#787878"/>
<path d="M638.312 1043.43L659.736 1059.11L681.34 1032.27L677.658 1026.7L670.285 1026.44V1010.72L664.76 1007.36L648.034 1012.35L654.428 1027.08L638.312 1043.43Z" fill="#787878"/>
<path d="M1410.42 1090.43L1415.48 1100.44L1429.68 1088.23L1429.82 1084.47L1413.09 1082.05L1410.42 1090.43Z" fill="#787878"/>
<path d="M964.071 1125.11L990.155 1148.73L979.785 1160.73L978.954 1167.85L992.575 1181.9L992.249 1195.41L968.551 1204.43L954.354 1185.25L957.388 1162.2L951.319 1145.04L964.071 1125.11Z" fill="#787878"/>
<path d="M684.086 1033.53L717.467 1032.27L727.368 1044.04L721.191 1042.63L709.305 1043.13L693.77 1057.73L687.124 1072.5L682.753 1070.19L682.715 1054L673.106 1047.57L684.086 1033.53Z" fill="#787878"/>
<path d="M1724.8 695.307L1712.05 705.818H1699.12L1697.56 714.921L1703.49 716.475L1706.45 712.066L1711.11 716.149L1714.83 729.156L1740.36 741.08L1742.89 738.192L1716.99 711.46L1719.63 706.587L1744.24 705.642L1746.73 697.802L1730.69 698.266L1724.8 695.307Z" fill="#787878"/>
<path d="M840.553 985.121L852.984 986.421L851.504 1001.67L850.275 1009.69L835.788 1008.9L833.221 1012.77L828.778 1012.44L827.19 1004.1L842.471 1002.83L841.531 994.162L834.521 991.274L840.553 985.121Z" fill="#787878"/>
<path d="M1728.85 675.22L1724.66 681.794L1724.99 691.837L1731.67 695.265L1752.23 695.879L1780.87 671.747L1781.02 666.401L1777.92 664.851L1757.21 674.246L1728.85 675.22Z" fill="#787878"/>
<path d="M2544.39 1137.54L2543.38 1145.78L2567.91 1187H2575.06L2626.18 1272.51L2646.63 1274.57L2656.85 1244.69L2640.48 1234.39L2637.42 1217.92L2544.39 1137.54Z" fill="#787878"/>
<path d="M2786.62 1251.48L2794.79 1261.5L2789.48 1276.53V1279.39H2801.54L2805.81 1241.82L2809.71 1242.9L2816.79 1277.23L2823.54 1279.04L2829.94 1264.36L2823.54 1242.18L2818.23 1232.52L2834.92 1220.36L2831.01 1214.97L2815.05 1225.34H2810.78L2802.99 1213.89L2805.48 1208.87L2818.63 1202.44L2838.5 1208.51L2844.53 1208.14L2859.45 1194.2L2853.42 1188.13L2839.58 1198.85H2830.69L2817.21 1192.43L2807.64 1192.78L2796.98 1209.95L2790.23 1239.64L2786.62 1251.48Z" fill="#787878"/>
<path d="M2875.71 1184.25L2868.96 1200.7L2879.61 1214.65H2883.16L2887.78 1205.36L2890.28 1202.14L2885.66 1197.12L2878.9 1194.62L2875.71 1184.25Z" fill="#787878"/>
<path d="M2896.67 1238.27L2882.12 1241.49L2877.85 1246.15L2881.39 1252.22L2890.96 1248.65L2896.99 1245.07L2905.88 1252.23L2909.79 1249.01L2902.71 1240.41L2896.67 1238.27Z" fill="#787878"/>
<path d="M2655.26 1284.77L2645.33 1291.56L2647.46 1297.26L2679.07 1304.41L2695.04 1307.27L2701.79 1314.43L2719.89 1315.87L2728.42 1323.02L2736.22 1321.21L2743.33 1314.78L2730.18 1308.71L2718.84 1299.07L2689.36 1291.91L2655.26 1284.77Z" fill="#787878"/>
<path d="M2758.59 1315.86L2750.8 1320.17L2755.41 1325.19L2766.76 1320.89L2758.59 1315.86Z" fill="#787878"/>
<path d="M2772.06 1312.65L2773.47 1319.44L2781.64 1321.57L2784.82 1317.64L2781.28 1312.25L2772.06 1312.65Z" fill="#787878"/>
<path d="M2791.61 1330.53L2781.67 1331.99L2790.56 1339.5H2797.64L2791.61 1330.53Z" fill="#787878"/>
<path d="M2794.43 1318.72L2792.29 1323.02L2808.26 1325.51L2820.69 1318.36L2813.61 1316.22L2802.26 1319.44L2798 1315.86L2794.43 1318.72Z" fill="#787878"/>
<path d="M2846.63 1321.25L2828.17 1336.64L2829.94 1340.58L2837.74 1339.14L2846.96 1330.53L2865.06 1328.04L2861.52 1321.97L2846.63 1321.25Z" fill="#787878"/>
<path d="M2939.8 1216.19L2924.74 1217.89L2915.07 1224.96L2919.07 1233.06L2935.48 1236.1V1239.13L2925.11 1247.56L2930.13 1265.08L2935.15 1265.4L2939.49 1248.2H2947.51L2950.88 1265.03L2990 1297.41L2991.01 1322.7L3004.37 1337.19L3010.4 1336.87L3011.73 1247.56L2989 1231.74L2967.58 1246.23L2959.88 1250.96L2947.16 1242.86L2946.84 1217.25L2939.8 1216.19Z" fill="#787878"/>
<path d="M2758.26 1162.22L2749.91 1193.57L2704.65 1208.85L2691.1 1192.96L2684.53 1194.77L2696.81 1242.16L2715.19 1244.22L2739.72 1253.51V1262.79L2750.96 1260.73L2767.32 1238.08V1219.55L2776.53 1201.01L2786.75 1203.06L2774.47 1177.3L2772.6 1160.72L2758.26 1162.22Z" fill="#787878"/>
<path d="M1522.09 591.945L1518.81 613.624L1489.65 624.323H1480.36L1473.75 619.663V615.651L1488.35 606.297L1484.37 598.273L1485.02 586.93L1497.64 587.577L1503.42 573.994L1502.65 586.06L1512.45 593.826L1522.09 591.945Z" fill="#787878"/>
<path d="M1904.36 850.292L1898.65 868.467L1906.05 890.256L1914.54 858.422V851.597L1904.36 850.292Z" fill="#787878"/>
<path d="M2358.34 1121.07L2374.88 1112.97L2384.71 1077.43L2384.27 1033.79L2440.56 973.021V958.615L2452.16 954.097L2451.72 937.446L2439.22 913.134L2446.37 900.09L2462.01 914.505L2482.11 915.408V923.507L2475.86 930.261L2477.19 933.868L2487.92 934.303L2490.16 946.44H2493.3L2501.36 932.025L2505.36 894.235L2518.77 884.768L2519.2 871.728L2513.86 861.359L2505.37 860.925L2472.14 882.892L2474.23 897.018L2450.89 896.939L2442.66 886.866L2438.18 887.443L2439.69 901.461L2389.23 897.854L2357.94 883.907L2356.28 866.746L2335.44 853.815L2335.19 827.188L2320.88 810.821L2288 813.964L2291.57 828.275L2307.68 841.315L2279.82 898.326L2261.18 899.735L2258.12 906.606L2276.47 923.583L2275.57 940.739L2256.82 940.451L2254.8 948.977L2270.37 948.291L2270.81 955.046L2259.65 960.897L2266.8 974.405L2280.64 978.918L2289.13 972.632L2293.14 961.398L2298.06 959.162L2303.87 965.005L2302.1 979.42L2298.09 986.178L2299 997.881L2358.34 1121.07Z" fill="#787878"/>
<path d="M1972.96 803.224L1967.33 831.076L1943.98 850.51L1945.46 859.684L1968.26 861.234L2004.57 890.783L2024.87 890.206L2025.42 883.377L2032.86 875.394L2043.26 881.283L2044.64 879.979L2024.51 853.21L2014.98 852.629L2002.3 836.337L2004.82 824.351L2008.69 823.845L2010.03 818.533L1992.76 800.361L1972.96 803.224Z" fill="#787878"/>
<path d="M1992.25 777.642L1987.83 782.231L1988.27 789.494L1993.76 797.193L2013.23 818.512L2010.27 827.038H2006.87L2005.18 835.564L2016.2 849.653L2026.35 850.518L2046.69 878.654L2058.1 879.524L2066.99 885.914L2067.42 898.712L2102.58 919.191H2115.7L2123.75 912.362L2133.91 911.927L2139.83 925.585L2177.8 930.86L2178.93 916.913L2191.5 912.362L2192.08 907.376L2182.07 893.717L2159.78 875.8L2171.48 865.142L2170.66 860.445L2155.98 858.171L2149.77 808.674L2149.05 797.293L2109.27 782.076L2091.64 786.051L2081.78 798.154L2073.03 797.573L2070.51 799.709L2051.03 798.443L2026.47 780.521L2017.32 770.516L2013.13 771.519L2005.57 780.153L1992.25 777.642Z" fill="#787878"/>
<path d="M1402.33 414.051L1395.26 410.043L1385.72 416.074L1377.52 423.656L1377.73 427.89L1388.35 429.223L1387.7 436.809L1383.95 440.603L1384.86 443.061L1395.48 443.746V456.026L1410.76 458.705L1419.82 463.841L1430.01 464.276L1447.5 455.57L1461.01 437.72L1461.23 425.654L1453.03 418.716L1446.16 412.898L1443.06 415.138L1438.4 421.169L1433.09 420.484L1427.77 414.662L1420.91 415.314L1410.94 423.585L1404.93 430.05L1401.61 427.167L1401.39 420.011L1404.71 417.771L1402.33 414.051Z" fill="#787878"/>
<path d="M1640.44 701.889L1638.21 707.557L1638.82 713.734L1647.45 723.814L1661.03 723.342L1691.02 758.174L1709.74 763.594L1720.8 774.035L1723.44 797.836L1729.36 794.376L1734.49 781.403L1733.23 772.087L1742.01 771.293L1743.28 766.014L1718.53 754.17L1695.05 731.087L1685.69 717.282L1683.41 704.171L1695.37 701.312L1692.3 692.678L1684.97 686.501L1678.64 686.212L1669.83 688.636L1661.52 700.259L1656.5 703.582L1648.73 698.813L1640.44 701.889Z" fill="#787878"/>
<path d="M1713.32 795.956L1708.08 793.139L1690.2 795.956L1690.81 800.796L1706.89 808.893L1709.31 811.53L1713.54 812.145L1713.32 795.956Z" fill="#787878"/>
<path d="M1659.56 761.133L1649.99 765.973L1651.26 784.653L1658.92 785.953L1664.66 780.469V762.767L1659.56 761.133Z" fill="#787878"/>
<path d="M797.454 1000.33L784.881 1003.51V1007.02L792.217 1011.25H799.912L804.789 1005.61L797.454 1000.33Z" fill="#787878"/>
<path d="M1917.29 860.123L1908.4 891.117L1908 895.853H1921.99L1937.63 882.048L1938.02 876.811L1931.63 870.274L1943.08 860.779L1941.43 851.964L1938.28 852.687L1928.75 859.521L1917.29 860.123Z" fill="#787878"/>
<path d="M2836.12 772.111L2830.22 778.038L2832.64 786.381L2837.81 786.74L2841.28 804.847L2845.43 809.361L2852.69 802.749L2853.32 782.798L2844.97 773.916L2836.12 772.111Z" fill="#787878"/>
<path d="M2866.92 755.372L2855.81 764.384L2853.34 775.749L2860.91 780.974L2871.88 769.479L2873.43 756.68L2866.92 755.372Z" fill="#787878"/>
<path d="M2854.07 738.006L2836.44 758.201V767.906L2847.32 766.602L2864.39 751.59L2875.81 749.492L2878.58 752.747L2878.64 762.682L2881.52 767.906H2886.76L2894.13 758.887L2897.24 747.034L2912.08 746.675L2926.61 729.263L2919.03 700.358L2915.56 685.045L2923.14 678.792L2905.87 652.708L2901.93 649.599L2894.09 652.708L2892.08 663.508V672.214L2896.23 677.091L2897.6 700.07L2886.9 713.293L2880.7 709.461L2875.85 720.261L2874.8 730.341L2878.6 736.268L2876.18 740.782L2868.23 734.17H2862.71L2857.87 736.953L2854.07 738.006Z" fill="#787878"/>
<path d="M2883.81 580.705L2878.29 585.587L2881.07 596.027L2885.91 600.9L2885.55 616.907L2879.33 619.323L2874.5 630.123L2888.66 649.595L2897.98 646.452L2899.71 641.574L2889.7 632.543L2895.91 624.522L2902.48 625.567L2916.82 635.201L2918.36 624.401L2925.17 611.951L2934.71 602.288L2924.39 597.586L2920.44 590.059L2915.28 593.528L2910.8 599.09L2901.12 596.997L2891.11 590.385L2883.81 580.705Z" fill="#787878"/>
<path d="M2935.94 569.905L2926.25 583.49L2926.94 590.102L2931.78 588.004L2943.16 573.734L2935.94 569.905Z" fill="#787878"/>
<path d="M2948.73 550.07L2945.26 559.466L2945.62 565.719L2951.51 561.882L2957.04 550.756V546.601L2948.73 550.07Z" fill="#787878"/>
<path d="M1924.27 1169.88L1933.88 1188.62L1922.35 1212.79L1920.84 1220.12L1978.39 1255.71L1996.24 1227.68L1987.21 1220.34L1987.03 1183.42L1998.33 1171.06L1980.31 1177.06L1966.69 1177.25L1945.37 1159.25L1938.65 1156.36L1926.2 1157.52L1924 1161.21L1924.27 1169.88Z" fill="#787878"/>
<path d="M2234.89 709.935L2233.77 719.079L2234.67 724.721L2266.1 735.266L2238.5 746.392L2235.36 743.788L2229.4 747.621L2229.68 749.714L2232.87 751.16L2252.24 751.666L2262.06 748.703L2274.68 732.809L2290.46 735.55L2309.5 709.174L2258.56 702.236L2251.52 719.322L2242.63 709.788L2234.89 709.935Z" fill="#787878"/>
<path d="M2609.42 1072.15L2624.19 1087.93L2651.68 1067.56L2654.1 1035.41L2639.9 1045.2L2632.53 1041.08L2622.52 1039.75L2616.91 1035.81L2614.2 1035.96L2606.87 1047.99L2608.06 1053.56L2615.51 1057.71L2614.61 1069.01L2609.42 1072.15Z" fill="#787878"/>
<path d="M2021.3 1331.41L2022.96 1336.93L2030.11 1338.05L2032.85 1330.86L2021.3 1331.41Z" fill="#787878"/>
<path d="M2745.98 692.092L2752.63 694.876L2754.65 718.138L2767.83 718.903L2780.26 704.346L2775.96 700.518L2776.47 684.912L2787.88 671.107L2782.07 660.633L2785.86 656.291L2787.95 645.458L2781.34 642.453L2775.7 645.312L2768.73 666.476L2757.46 665.507L2744.42 680.895L2745.98 692.092Z" fill="#787878"/>
<path d="M2782.32 706.285L2804.65 724.491L2808.45 742.128L2807.68 751.59L2796.78 763.874L2787.38 764.375L2776.72 741.363L2772.67 730.376L2776.97 727.053L2775.96 722.46L2770.65 720.082L2782.32 706.285Z" fill="#787878"/>
<path d="M2041.53 883.206L2033.4 878.792L2027.77 884.46L2028.38 895.808L2041.5 900.828L2041.53 883.206Z" fill="#787878"/>
<path d="M2017.69 671.68L2032.5 665.357L2049.05 664.776L2050.2 690.065H2040.52L2033.11 702.136L2042.79 718.214L2057.06 726.272L2058.36 735.488L2063.61 733.749L2068.44 728.002L2076.43 729.741L2080.44 737.799H2090.7V727.463L2084.41 709.073L2081.55 694.157L2099.79 686.095L2124.32 690.103L2139.72 705.605L2174.5 702.173L2193.91 729.745L2216.71 730.89L2223 720.559L2230.98 718.82L2232.13 707.335L2244.09 706.754L2250.37 714.231L2256.66 699.31L2310.81 706.787L2319.92 694.721L2304.53 675.759L2325.05 630.96L2341.59 632.109L2353 604.55L2330.21 602.235L2317.09 589.596L2280.96 593.784L2234.43 548.805L2218.02 563.357L2168.28 540.78L2107.25 570.655L2105.56 591.899L2119.83 608.554L2092.01 624.269L2055.92 623.474L2048.37 612.386L2020.07 610.827L1993.27 628.059L1992.68 651.623L2017.69 671.68Z" fill="#787878"/>
<path d="M2591.32 940.142L2582.57 944.58L2575.31 965.749L2587.45 981.209L2585.42 998.303L2587.45 999.122L2607.65 989.334L2634.74 1019.61L2634.08 1038.68L2639.97 1041.86L2654.53 1030.05L2653.34 1020.69L2611.32 980.77L2611.72 974.664L2616.96 971.015L2613.3 960.826L2595.93 957.967L2591.32 940.142Z" fill="#787878"/>
<path d="M1907.54 829.989L1907.76 837.036L1904.8 847.736L1914.99 848.606L1915.64 833.429L1907.54 829.989Z" fill="#787878"/>
<path d="M952.983 1052.5L950.417 1057.96L954.571 1062.43L959.988 1059.54L952.983 1052.5Z" fill="#787878"/>
<path d="M2392.88 1103.15L2393.78 1112.98L2394.69 1120.13L2389.37 1121.03L2392.05 1137.12L2400.03 1141.59L2412.43 1134.44L2408.89 1117.49L2409.79 1111.25L2398.27 1100.55L2392.88 1103.15Z" fill="#787878"/>
<path d="M1452.22 1143.39L1491.89 1169.91L1490.94 1149.83L1478.95 1135.7L1467.24 1125.33L1452.22 1143.39Z" fill="#787878"/>
<path d="M1839.65 1527.07L1850.67 1518.58L1855.88 1518.8L1862.16 1526.64L1861.51 1534.48L1850.92 1538.39V1541.43L1839.25 1540.78L1836.44 1532.29L1839.65 1527.07Z" fill="#787878"/>
<path d="M1761.26 559.14L1752.29 560.658L1753.01 569.121L1767.04 570.166L1772.34 574.521L1773.74 582.086L1778.06 588.117L1790.88 587.573L1803.16 571.93L1802.44 562.643L1779.32 559.019L1761.26 559.14Z" fill="#787878"/>
<path d="M1628.7 652.535L1631.88 655.373L1635.56 655.72L1636.37 648.472L1635.31 644.401L1630.2 646.838L1628.7 652.535Z" fill="#787878"/>
<path d="M1805.91 537.107L1779.32 532.773L1774.78 544.571L1767.12 546.862L1763.11 541.959L1759.09 534.39L1754.75 537.575L1752.29 550.665V557.803L1761.66 556.236L1781.16 556.583L1804.63 560.946L1814.03 558.2L1813.49 547.651L1805.91 537.107Z" fill="#787878"/>
<path d="M1668.55 886.315L1674.19 885.375L1675.85 872.368H1678.67L1690.2 853.444L1718.63 861.715L1726.39 873.781L1754.35 886.578L1768.9 880.435L1767.49 874.287L1761.13 868.147L1761.86 863.88L1772.19 855.132H1792.65L1800.4 865.535L1816.85 867.917L1818.98 1001.2L1806.77 1000.73L1733 962.356L1725.02 966.874L1694.7 959.292L1686.46 948.413L1674.47 946.754L1668.38 935.875L1668.55 886.315Z" fill="#787878"/>
<path d="M1553.81 829.412H1512.09L1503.93 847.547L1485.1 856.616L1469.56 898.669L1439.29 916.812L1396.77 986.864L1438.49 986.032L1440.12 965.44H1450.74V937.405H1487.56L1488.38 901.131L1523.57 892.889L1538.3 868.97L1561.21 868.143L1553.81 829.412Z" fill="#787878"/>
<path d="M1815.59 668.392L1826.8 685.625L1825.85 695.381L1829.87 695.561L1839.36 679.481L1827.95 665.315L1821.48 662.64L1815.59 668.392Z" fill="#787878"/>
<path d="M1750.98 732.341L1745.69 739.818L1747.2 744.412L1753.49 745.561L1758.44 738.844L1750.98 732.341Z" fill="#787878"/>
<path d="M2074.08 1337.51L2066.38 1355.79L2053.2 1379.05L2030.12 1380.71L2020.22 1392.34L2021.88 1427.82L2007.57 1444.44L2009.23 1472.7L2021.33 1486.53L2035.64 1484.88L2049.95 1474.33L2046.66 1457.71L2079.65 1400.63L2073.04 1393.44L2079.65 1379.6L2086.8 1381.8L2089 1376.27L2082.39 1348.02L2078.53 1336.38L2074.08 1337.51Z" fill="#787878"/>
<path d="M1780.08 741.731L1767.91 745.74L1768.49 756.077L1771.34 759.726L1785.8 753.013L1780.08 741.731Z" fill="#787878"/>
<path d="M1449.66 1059.04L1460.78 1051.42L1522.63 1051.06L1508.33 951.56L1524.66 951.092L1603.66 1011.39L1614.28 1012.91L1610.27 1046.43L1560.6 1050.94L1522.27 1079.56L1515.29 1099.14L1488.67 1100.27L1481.88 1080.72L1461.46 1082.17L1462.25 1075.77L1449.66 1059.04Z" fill="#787878"/>
<path d="M2569.53 1087.25L2559.52 1071.21L2566.78 1061.02L2559.92 1048.41L2553.45 1047.18L2552.22 1026.02L2542.54 1007.27L2539.72 1011.74L2533.25 1022.73L2525.16 1023.96L2521.11 1018.64L2519.09 1004.38L2513.02 992.965L2488.3 969.661L2494.38 965.653L2495.5 948.78L2504.53 933.605L2508.44 895.856L2521.52 886.929L2521.95 873.166L2529.79 875.766L2542.15 893.649L2532.98 913.297L2539.16 928.723L2554.43 934.721L2557.22 951.526L2577.74 954.707L2572.07 964.499L2546.2 974.689L2543.39 991.377L2562.39 1015.8L2563.18 1028.84L2558.74 1033.32L2559.14 1037.41L2573.3 1058.18L2573.7 1079.75L2569.53 1087.25Z" fill="#787878"/>
<path d="M2368.53 605.026L2389.55 577.136L2414.8 588.805L2431.96 593.394L2452.98 574.106L2438.71 563.586L2448.11 550.329L2476.14 560.23L2485.86 576.162L2503.41 576.63L2512.59 569.801L2531.48 569.041L2535.6 576.054L2566.99 577.642L2586.86 557.376L2614.36 560.26L2612.77 587.861L2624.8 590.602L2639.57 583.89L2655.22 591.622L2654.85 595.53L2643.51 595.856L2631.69 620.64L2622.52 621.543L2586.83 668.185L2550.37 684.264L2527.57 686.036L2508.64 673.819L2484.44 686.754L2460.59 679.353L2453.84 662.046L2408.68 658.861L2385.56 619.67L2374.32 618.943L2368.53 605.026Z" fill="#787878"/>
<path d="M1397.05 989.748L1404.93 1000.04L1403.31 1044.55L1414.76 1036.31L1422.92 1034.65L1434.37 1038.77L1447.45 1056.91L1459.73 1048.67L1519.45 1047.84L1504.71 948.091L1520.53 948.016L1491.05 925.439L1491.09 940.109L1453.77 940.15L1453.59 968.144L1442.86 968.107L1441.49 988.77L1397.05 989.748Z" fill="#787878"/>
<path d="M1713.93 822.875L1707.9 824.104L1708.11 830.792L1713.54 832.602L1715.96 830.579L1713.93 822.875Z" fill="#787878"/>
<path d="M2148.9 1431.69L2143.42 1438.88L2144.5 1446.65L2156.07 1437.22L2148.9 1431.69Z" fill="#787878"/>
<path d="M2305.66 1149.07L2306.74 1158.5L2312.77 1160.7L2313.86 1152.39L2305.66 1149.07Z" fill="#787878"/>
<path d="M2313.36 1169L2312.81 1180.64L2317.22 1182.84L2321.09 1175.08L2313.36 1169Z" fill="#787878"/>
<path d="M2314.48 1191.74L2310.61 1195.6L2315.02 1199.47L2320.51 1195.6L2314.48 1191.74Z" fill="#787878"/>
<path d="M1911 1360.92L1922.24 1372.66L1922.02 1387.69L1924.19 1394.02L1939.11 1377.91L1937.38 1357.43L1929.39 1351.33L1922.28 1315.38L1909.96 1314.94L1915.56 1340.84L1911 1360.92Z" fill="#787878"/>
<path d="M430.975 804.665L448.424 859.608L440.295 864.16L441.198 875.068L456.553 886.883V908.738L475.52 926.943L467.391 873.25L456.553 837.737L459.262 813.175L468.293 814.082L471.909 822.282L468.293 843.2L515.258 935.106V967.877L553.194 1012.45L594.738 1031.57L611.899 1021.55L636.286 1041.57L650.738 1027.01L644.415 1010.61L665.187 1004.25L671.51 1007.9L677.834 1001.54H687.768L705.832 969.678L696.8 961.478L661.576 969.678L653.447 993.342L632.671 996.995L608.288 986.981L597.45 952.413L605.651 908.804L588.887 898.364L580.904 856.486L574.221 853.632L562.009 866.024L547.991 858.547L542.503 830.62L486.975 824.798L458.292 803.232L430.975 804.665Z" fill="#787878"/>
<path d="M2581.35 1129.89L2588.6 1146.18L2590.24 1167.34L2599.95 1182.4L2621.25 1195.29L2625.43 1191.98L2631.54 1190.78L2630.66 1182.8L2622.96 1164.08L2611.69 1140.13L2610.74 1144.32L2597.16 1143.71L2587.41 1129.69L2581.35 1129.89Z" fill="#787878"/>
<path d="M2694.89 1192.99L2705.8 1205.61L2747.65 1191.12L2755.92 1159.17L2774.56 1157.84L2791.61 1145.49L2769.5 1129.38L2764.44 1120.52L2753.53 1140.65L2757.54 1152.21L2750.89 1161.86L2738.35 1158.64L2707.97 1180.93L2708.76 1193.83L2694.89 1192.99Z" fill="#787878"/>
<path d="M1889.36 1483.31L1899.09 1491.37L1921.98 1477.43L1925.67 1456.73V1422.55L1962.41 1392.5L1968.7 1392.72L1990.95 1371.37L1987.48 1327.37L1929.77 1334.65L1931.94 1348.6L1940.38 1355.95L1942.76 1379.9L1922.88 1399.3L1918.11 1388.42L1918.98 1374.04L1907.53 1361.62L1879.42 1374.7L1905.58 1388L1906.45 1426.76L1889.14 1452.45L1889.36 1483.31Z" fill="#787878"/>
<path d="M1728.16 1514.67L1740.27 1515.54L1747.38 1522.73L1764.26 1522.95L1768.37 1475.04V1443.69L1779.17 1441.51L1783.29 1408.63L1810.75 1407.77L1820.46 1399.72L1804.02 1399.07L1781.76 1402.1L1757.78 1393.4H1690.36L1692.1 1412.54L1714.57 1445.63L1710.66 1462.61L1710.89 1471.54L1728.16 1514.67Z" fill="#787878"/>
<path d="M3209.71 1509.29L3208.44 1515.76L3225.09 1539L3234.06 1542.87L3235.32 1533.83L3209.71 1509.29Z" fill="#787878"/>
<path d="M1599.33 1081.29L1608.54 1081.07L1616.85 1068.61L1630.79 1066.12L1645.64 1075.19L1677.32 1076.09L1701.82 1066.12L1711.03 1058.2L1711.72 1047.8L1728.8 1030.57L1733.32 992.519L1722.08 968.963L1693.33 961.954L1626.78 1013.83L1617.35 1012.93L1613.3 1048.94L1579.35 1052.34L1599.33 1081.29Z" fill="#787878"/>
<path d="M1601.79 1144.05L1615.95 1144.73L1633.04 1163.78L1641.34 1166.05L1647.85 1162.87L1657.75 1161.5L1661.11 1147.7L1674.59 1138.85L1689.19 1138.17L1715.92 1088.99L1715.48 1077.9L1703.13 1068.41L1678.42 1079.28L1645.36 1078.82L1629.61 1068.85L1618.37 1071.34L1612.52 1081.53L1612.09 1110.28L1602.66 1123.65L1601.79 1144.05Z" fill="#787878"/>
<path d="M720.899 1045.56L728.81 1047.15L729.065 1063.37L719.854 1089.67L695.036 1087.22L689.507 1074.54L696.879 1059.15L710.86 1046.14L720.899 1045.56Z" fill="#787878"/>
<path d="M1632.57 598.16L1616.21 606.219L1619.67 609.362L1620.04 617.421L1616.58 616.735L1612.74 610.775L1603.6 625.266L1617.66 628.188L1622.89 633.718L1625.68 633.789L1627.52 621.291L1636.36 617.567L1632.57 598.16Z" fill="#787878"/>
<path d="M1796.48 359.251L1803.78 353.905L1803.13 347.908L1798.5 345.228L1799.16 337.898H1803.13V333.886L1785.9 329.23L1760.06 331.905L1757.43 343.247L1751.46 341.254L1747.48 334.571L1734.88 335.219L1733.54 347.895L1727.58 350.574L1724.26 343.887L1697.74 365.24L1703.05 371.241L1693.11 375.901L1670.57 420.626L1662.63 425.971L1663.27 429.979L1671.21 433.987L1669.23 442.655L1655.97 441.97L1651.99 437.31L1643.39 447.32L1638.08 451.328L1636.74 460.69L1632.12 463.365L1620.2 466.039L1614.24 484.759L1618.21 515.469L1622.83 529.487L1628.15 534.833L1640.07 534.181L1657.3 517.488L1663.91 506.149L1665.91 522.834L1677.18 502.818L1677.83 446.714L1687 440.933L1689.75 409.972L1717.56 369.908L1730.82 365.248L1736.79 357.913L1756.65 362.573L1766.59 368.571L1769.92 351.886L1786.5 341.873L1796.48 359.251Z" fill="#787878"/>
<path d="M1698.22 185.189L1692.26 179.192L1679.03 185.624H1654.76L1650.92 199.788L1664.55 211.817L1670.5 210.947L1679.03 196.357L1686.26 201.519L1681.12 211.817L1678.55 226.846L1684.52 236.275L1697.31 214.813L1713.94 194.618L1707.54 189.06L1698.22 185.189Z" fill="#787878"/>
<path d="M1705.44 159.436L1694.78 169.295L1701.17 179.154H1712.66L1717.36 185.586L1731.41 192.884L1747.59 183.455L1758.69 174.026L1754.86 166.294L1743.76 159.862L1735.66 167.159L1730.14 160.288L1725.88 160.723L1720.35 172.752L1712.26 164.585L1711.39 159.022L1705.44 159.436Z" fill="#787878"/>
<path d="M1729.72 203.65L1721.19 211.387L1713.97 216.955L1717.36 222.953L1724.2 225.089L1735.28 219.922L1740.42 213.489L1735.72 205.757L1729.72 203.65Z" fill="#787878"/>
<path d="M2359.1 866.55L2360.76 881.976L2389.94 895.192L2436.72 898.661L2434.95 887.355L2403.7 878.754L2377.18 862.968L2359.1 866.55Z" fill="#787878"/>
<path d="M3232.76 1731.44L3236.59 1774.07L3231.46 1793.44L3212.23 1807.63L3213.51 1824.43V1842.5L3218.64 1848.97L3271.21 1803.77V1793.44H3258.38L3240.42 1732.75L3232.76 1731.44Z" fill="#787878"/>
<path d="M3194.32 1824.44L3204.58 1843.8L3176.36 1870.93L3173.8 1885.13L3154.57 1887.69L3122.53 1917.38L3093.05 1903.19L3090.48 1892.85L3144.31 1869.62L3194.32 1824.44Z" fill="#787878"/>
<path d="M2096.05 1004.85L2122.75 989.455L2127.48 966.878L2121.64 963.518L2124.06 939.311L2129.15 936.347L2134.61 944.911L2167.09 961.888V971.325L2127.75 1029.23L2109.64 1029.84L2096.05 1004.85Z" fill="#787878"/>
<path d="M731.196 1108.79L725.922 1125.26L743.338 1129.77L754.137 1131.91L755.98 1119.15L767.578 1113.3L777.872 1118.61L781.918 1125.08L786.829 1124.5L790.695 1112.76L777.83 1107.45L768.076 1102.13L758.325 1108.78L746.727 1114.63L734.878 1109.86L731.196 1108.79Z" fill="#787878"/>
<path d="M747.237 1252.97L740.229 1260.05L740.701 1271.35L801.9 1382.92L865.449 1423.88L875.274 1407.41L877.623 1371.18L872.491 1348.6L855.184 1319.41L844.89 1322.7L840.23 1327.86L819.675 1304.31L824.808 1276.53L848.651 1260.99L846.775 1246.4L822.497 1245.45L809.887 1224.29L802.878 1221.94L803.351 1234.66L772.063 1271.84L748.688 1266.2L747.237 1252.97Z" fill="#787878"/>
<path d="M3015.06 1248.53L3013.73 1336.82L3026.45 1336.14L3043.17 1316.59L3057.22 1317.28L3066.25 1325.37L3069.25 1350.3L3098.02 1365.47L3105.39 1362.77V1353.66L3082.3 1334.44L3070.92 1308.14L3079.95 1303.76L3073.26 1289.28L3059.9 1288.95L3056.54 1273.45L3021.1 1249.53L3015.06 1248.53Z" fill="#787878"/>
<path d="M3123.91 1272.87L3120.49 1273.67L3118.39 1282.96L3111.82 1287.23L3092.05 1290.69L3092.85 1298.13L3113.66 1297.09L3126.85 1288.85L3126.06 1274.5L3123.91 1272.87Z" fill="#787878"/>
<path d="M3115.2 1251.09L3112.02 1255.61L3129.4 1271L3131.78 1280.03L3136.52 1279.49L3137.06 1270.21L3131.78 1265.44L3115.2 1251.09Z" fill="#787878"/>
<path d="M2786.05 1065.15L2782.94 1071.07L2781.21 1078.37L2763.94 1100.3L2764.98 1104.82L2772.24 1103.77L2794.68 1078.69L2786.05 1065.15Z" fill="#787878"/>
<path d="M2814.01 1056.8L2813.64 1074.9L2820.21 1081.52L2822.63 1094.38L2829.21 1095.79L2832.31 1087.76L2827.14 1083.94L2825.77 1061.32L2814.01 1056.8Z" fill="#787878"/>
<path d="M2832.68 1063.78L2832.32 1079.78L2836.11 1086.03L2842.68 1078.37L2840.95 1064.46L2832.68 1063.78Z" fill="#787878"/>
<path d="M2836.8 1049.83L2843.37 1058.54L2846.48 1066.88H2852.37L2851.32 1052.61L2844.75 1048.09L2836.8 1049.83Z" fill="#787878"/>
<path d="M2849.59 1082.56L2850.96 1093L2838.86 1102.75L2828.85 1103.8L2818.15 1115.29L2818.51 1120.52L2828.52 1117.38L2835.43 1112.87L2841.31 1127.83L2851.67 1135.13L2855.83 1133.71L2859.62 1129.2L2851.35 1120.85L2856.19 1117.03L2861.72 1121.54L2865.5 1115.29L2861.72 1107.63L2861.03 1090.58L2849.59 1082.56Z" fill="#787878"/>
<path d="M2793.3 976.417L2783.98 983.025L2782.94 1003.91L2797.47 1032.09L2802.31 1035.91L2808.52 1031.72L2819.22 1033.45L2821.27 1042.85L2829.22 1043.53L2833.01 1038.33L2828.17 1031.72L2822.28 1026.16L2809.86 1024.79L2803.28 1013.99L2810.87 1002.5L2811.55 992.42L2806.39 979.56L2793.3 976.417Z" fill="#787878"/>
<path d="M2798.14 1038.7L2800.89 1048.46L2805.73 1051.61L2809.2 1047.09L2803.67 1039.43L2798.14 1038.7Z" fill="#787878"/>
<path d="M2185.46 892.852L2194.86 906.798L2193.96 913.987L2181.46 918.944L2180.55 930.65H2194.86L2199.77 926.601H2227.02L2251.58 948.208L2254.73 937.839H2273.04L2273.48 924.799L2254.73 906.807L2258.74 896.906L2277.96 895.577L2303.87 841.562L2289.55 830.327L2284.21 811.432L2319.04 808.289L2298.49 779.033L2287.54 776.07L2283.07 781.491L2279.7 781.745L2259.14 794.785L2265.86 806.053L2258.28 814.149L2248.88 848.796L2225.65 863.646L2222.51 879.87L2185.46 892.852Z" fill="#787878"/>
<path d="M1782.03 621.614L1785.09 627.248L1785.82 633.246L1783.29 639.064L1777.51 650.198L1772.64 652.396L1766.31 649.65L1762.51 649.83L1753.3 653.299L1742.83 650.198L1725.85 638.165L1709.23 629.242L1702.54 619.053L1701.27 595.021L1714.28 583.715L1731.26 578.073L1736.81 577.496L1738.12 581.705L1745.33 584.597L1765.25 584.973L1771.39 584.794L1781.51 600.291L1778.99 606.648L1780.07 614.125L1782.03 621.614Z" fill="#787878"/>
<path d="M913.492 1005.64L903.954 1002.42L896.292 1007.22L900.125 1011.7L913.17 1013.61L913.492 1005.64Z" fill="#787878"/>
<path d="M1491.1 753.4L1488.85 784.654L1482.46 790.438L1483.11 793.974L1487.59 801.38L1484.7 810.408L1489.5 812.038L1500.7 810.734L1500.06 801.706L1507.39 759.828L1505.8 754.048L1491.1 753.4Z" fill="#787878"/>
<path d="M1408.91 844.365L1405 849.319L1408.91 854.272L1414.79 851.308L1408.91 844.365Z" fill="#787878"/>
<path d="M1280.51 774.285L1275.6 779.234L1284.4 784.187L1285.38 777.294L1280.51 774.285Z" fill="#787878"/>
<path d="M1306.99 771.322L1301.1 775.255L1306.01 779.188L1313.85 777.198L1306.99 771.322Z" fill="#787878"/>
<path d="M1310.89 785.155L1307.96 793.064L1311.87 798.017L1316.78 794.084L1310.89 785.155Z" fill="#787878"/>
<path d="M1334.41 800.945L1332.46 805.894L1335.39 808.858L1343.23 803.909L1334.41 800.945Z" fill="#787878"/>
<path d="M988.311 1433.57L996.261 1442.24L995.32 1460.6L1018.22 1459.18L1035.53 1481.33L1034.12 1501.09L1022.92 1518.04L1000.02 1518.98L999.078 1509.55L1005.61 1494.01L983.179 1479.88H964.501L950.483 1464.82L960.673 1435.7L988.311 1433.57Z" fill="#787878"/>
<path d="M2075.27 926.02L2073.4 940.512L2078.96 944.742L2084.01 944.274L2085.89 926.029L2081.52 922.885L2075.27 926.02Z" fill="#787878"/>
<path d="M1784.63 667.994L1783.68 673.339L1762.76 690.751L1780.25 716.4L1791.46 724.245H1811.62L1818.27 718.682L1827.19 717.529L1833.84 721.537L1845.62 708.133L1843.34 701.417L1831.38 698.349L1823.22 697.952L1823.61 686.463L1812.78 669.411L1784.63 667.994Z" fill="#787878"/>
<path d="M1760.68 693.062L1753.27 698.63H1749.67L1747.21 706.286L1755.95 716.442L1756.53 724.5L1752.85 729.708L1765.67 743.069L1779.53 738.84L1778.39 719.109L1760.68 693.062Z" fill="#787878"/>
<path d="M2889.37 253.724L2895.73 275.692L2908.45 279.34L2921.16 259.22L2913.9 245.491L2916.61 233.6H2935.68L2931.13 242.745L2932.94 275.692L2905.7 343.394L2908.4 358.026L2907.5 382.735L2958.33 456.832L2968.3 459.578L2969.21 399.215L2979.18 390.07L2968.27 366.298L2977.34 356.217L2957.37 329.694L2946.45 330.601L2942.84 286.704L2970.98 279.369L2972.79 266.547L2987.32 262.898L2995.49 270.237L3005.46 229.985L3022.7 200.729L3036.32 193.39L3048.13 194.297V180.568L3029.06 176.919L3002.72 154.952L3015.44 140.324L3004.54 115.611L3013.6 106.47L3024.51 121.098L3051.75 131.175L3081.7 133.921L3085.35 121.128L3069.93 105.593L3087.16 81.82L3048.11 68.0906L3038.13 88.2105L3025.42 71.7393L2953.71 47.0262L2885.6 58.9126L2875.63 64.4044V69.8919L2890.15 77.2311L2888.34 94.605L2862 83.6214L2803.92 106.496L2793.94 85.4688H2753.98L2735.8 104.69L2671.35 90.0577L2612.36 101.944L2605.1 120.229L2614.17 122.971L2613.27 136.7L2556.07 143.091L2559.72 161.376L2507.04 152.231L2519.76 128.458L2466.19 125.713L2470.74 150.426L2453.51 158.663L2438.98 144.934L2379.98 155.015L2357.3 176.041L2356.39 188.83L2341.86 189.733L2340.05 175.105L2386.37 134.861V107.402L2356.42 99.1647L2317.36 111.958L2301.03 95.4827H2293.77L2284.7 113.763L2291.96 122.001L2240.19 150.367L2195.71 184.22L2168.46 221.718V237.253L2197.51 249.144L2182.98 260.123L2152.13 249.144L2139.41 260.123L2120.34 238.156L2116.69 246.398L2137.57 312.258L2143.02 314.096L2157.56 306.766L2164.82 312.253V324.14L2151.19 318.652L2143.02 325.042L2148.49 336.929L2143.94 368.036L2115.79 370.782L2113.99 360.701L2130.31 350.625L2133.96 323.166L2115.79 299.393L2109.43 258.242L2080.39 253.653L2077.68 268.281L2083.14 275.612L2071.33 285.693L2075.88 313.152L2093.12 320.487L2096.77 340.607L2079.49 329.627L2035.02 321.385L2029.56 336.022L1994.15 348.811L1988.69 339.67L1942.38 365.278L1941.48 382.656L1923.3 385.402L1928.76 372.613V359.82L1910.58 353.429L1898.77 358.018L1908.75 377.239L1916.01 390.028V400.109L1902.38 397.367L1899.68 394.622L1886.05 409.254L1893.31 422.047L1862.45 421.14L1872.43 433.967L1869.73 439.454H1853.4L1841.58 431.217L1838.88 408.347L1819.81 401.012V391.871L1859.77 400.113L1881.55 401.952L1890.62 388.223L1882.46 373.591L1824.37 350.721L1804.31 355.703L1797.45 361.596L1799.59 375.137L1808.11 376.617L1806.12 397.936L1832.42 459.712L1813.41 489.842L1812.11 496.633L1821.76 503.425L1813.05 509.172L1807.27 509.28L1808.36 535.832L1816.34 547.142L1816.45 558.121L1826.67 559.062L1842.31 565.021L1858.85 587.783L1859.04 593.78L1853.66 602.996L1866.01 602.31L1878.04 605.779L1894.3 628.791L1934.33 632.44L1932.59 659.823L1918.8 671.639L1921.65 676.257L1908.03 690.894L1904.42 704.619L1912.58 716.509L1938.92 725.65L1949.83 719.255L2019.74 745.778L2022.45 738.439L2007.92 724.718V707.34L1998.85 704.594L2000.66 689.966L2015.19 672.588L1989.15 653.082L1990.95 625.949L2018.81 607.631L2051.5 609.474L2056.96 619.555L2090.56 621.394L2115.09 607.668L2102.37 593.939L2105.07 568.323L2168.62 537.22L2217.5 559.254L2233.83 544.626L2281.95 590.357L2318.26 586.708L2330.98 599.498L2365.48 603.146L2388.17 572.047L2417.22 584.87L2432.64 587.62L2448.07 573.89L2434.44 564.746L2446.26 546.465L2479.86 557.448L2487.11 572.081L2501.64 572.983L2510.71 566.593L2535.24 565.686L2537.95 572.081L2566.09 573.919L2585.15 553.8L2624.21 558.389L2636.03 553.8L2639.64 531.832L2627.83 505.31L2639.64 495.233H2676.85L2712.26 537.316L2757.63 562.932H2771.26L2773.06 551.952L2789.39 541.872L2791.2 601.337L2776.68 602.239V616.867L2784.84 626.948L2783.32 640.026L2789.35 642.525L2793.01 633.38L2798.46 635.223L2802.08 638.872L2818.4 635.223L2834.73 587.641L2836.54 528.171L2815.66 480.588L2789.33 448.586L2776.61 450.425V460.506L2745.75 448.616L2757.56 423.004L2767.54 355.301L2809.3 342.512L2829.28 329.723H2851.06L2845.58 337.054L2851.04 346.199L2870.11 326.079L2881.01 326.977L2879.21 315.091L2861.94 311.442L2873.75 268.449L2889.37 253.724Z" fill="#787878"/>
<path d="M1752.77 571.898L1747.35 581.912L1766.85 582.092H1770.82L1770.08 576.441L1767.03 572.871L1752.77 571.898Z" fill="#787878"/>
<path d="M2969.11 467.236L2964.63 472.804L2964.99 481.51L2969.14 481.151L2976.04 468.975L2969.11 467.236Z" fill="#787878"/>
<path d="M3118.13 128.939L3109.6 134.502L3107.58 141.583L3111.59 146.135L3120.62 143.1L3129.66 146.135L3134.68 147.652L3134.17 130.958L3118.13 128.939Z" fill="#787878"/>
<path d="M1913.39 130.381L1919.61 132.88L1915.23 140.396V151.054L1905.91 156.697H1895.98L1890.38 149.796L1890.99 142.281L1895.36 136.638H1904.07L1913.39 130.381Z" fill="#787878"/>
<path d="M1937.02 123.485V131.001L1943.23 136.025L1951.93 135.414L1959.41 128.514V123.489H1952.58L1946.98 125.366L1942.6 120.346L1937.02 123.485Z" fill="#787878"/>
<path d="M1972.49 124.129L1976.87 133.525L1985.58 134.14L1991.79 131.648L1988.69 122.867L1980.59 120.981L1972.49 124.129Z" fill="#787878"/>
<path d="M2007.94 111.599L2001.1 110.332L1994.89 116.619L1998 122.257L1999.87 131.039L2007.97 124.786L2009.85 117.889L2007.94 111.599Z" fill="#787878"/>
<path d="M2045.87 178.039L2043.99 186.816L2029.68 199.354L1999.19 206.254L1974.3 247.618L1969.92 259.542L1994.82 265.832L1998.54 250.799L2006.02 227.607L2025.31 217.564L2041.49 205.026L2053.3 200.006H2059.51V183.096L2045.87 178.039Z" fill="#787878"/>
<path d="M1965.63 269.549L1982.43 271.429L1988.04 290.86L2002.35 305.893L1997.36 315.932H1988.65L1980.56 306.537L1962.53 305.927L1955.05 295.883V288.983L1966.26 285.84L1965.63 269.549Z" fill="#787878"/>
<path d="M2228.17 55.8244L2220.07 50.796H2210.75L2208.88 56.4388L2198.94 62.0816L2191.46 64.5728L2190.23 72.0882L2207.65 73.3546L2228.17 55.8244Z" fill="#787878"/>
<path d="M2247.43 57.6963L2243.05 67.0875L2234.35 66.4773L2220.65 76.5163L2216.93 89.0546H2225.64L2230.63 80.8922L2242.44 89.6731L2253.64 84.6494L2261.74 77.7534L2258.63 67.0917L2254.26 59.577L2247.43 57.6963Z" fill="#787878"/>
<path d="M2265.49 64.5963L2269.86 82.1559L2276.69 98.4447L2284.17 85.2948L2298.48 82.1517V72.7553L2289.16 65.8545L2265.49 64.5963Z" fill="#787878"/>
<path d="M2606.82 36.4938L2616.54 44.6562L2623.43 41.8016L2625.45 30.35L2611.29 20.5617L2601.97 26.7013L2579.28 28.7618V38.9805L2555.36 39.3817V56.1078L2583.32 76.9172L2590.62 71.6051L2588.99 56.8977L2606.84 52.4215L2603.19 45.4837L2596.72 38.9513L2606.82 36.4938Z" fill="#787878"/>
<path d="M2632.76 26.6981L2639.22 38.9535L2664.37 36.0944L2671.27 27.0994L2669.65 19.3374L2662.75 16.4785L2656.28 21.3939L2637.64 25.4818L2632.76 26.6981Z" fill="#787878"/>
<path d="M2631.13 74.4601L2618.55 71.2123L2611.3 78.9743L2608.04 89.5954L2625.06 87.9694L2638.04 81.4321L2631.13 74.4601Z" fill="#787878"/>
<path d="M2956.96 3.83206L2946.42 0.580139L2934.28 5.0609L2928.21 14.0517L2935.91 24.2756L2956.18 15.2848L2960.22 10.804L2956.96 3.83206Z" fill="#787878"/>
<path d="M2960.83 488.48V503.799L2965.67 505.534L2969.13 499.967V488.15L2960.83 488.48Z" fill="#787878"/>
<path d="M2819.54 433.132L2819.22 455.421L2847.18 498.595L2857.19 536.164L2874.82 569.582L2881.71 572.006L2887.6 567.125L2890.35 559.109L2865.13 531.616L2865.82 517.339L2871.34 514.924L2872.72 506.577L2823.34 436.635L2819.54 433.132Z" fill="#787878"/>
<path d="M3014.37 363.878L3007.48 364.564L3011.63 370.491L3020.26 376.418L3022.68 373.634L3014.37 363.878Z" fill="#787878"/>
<path d="M3027.81 368.075L3028.86 373.993L3039.56 377.137L3040.61 372.948L3027.81 368.075Z" fill="#787878"/>
<path d="M3086.51 390.794L3091.03 398.89L3098.55 398.385L3100.06 392.817L3086.51 390.794Z" fill="#787878"/>
<path d="M3162.27 403.433L3168.3 414.56L3172.82 409.506V401.92L3162.27 403.433Z" fill="#787878"/>
<path d="M1877.26 1218.22L1887.42 1227.57L1886.98 1237.59L1871.23 1237.91V1226.85L1877.26 1218.22Z" fill="#787878"/>
<path d="M2044.09 905.135L2069.42 940.422L2077.58 946.934L2081.24 962.753L2120.22 965.821L2124.63 968.136L2120.26 987.642L2094.64 1002.74L2057.18 1014.09L2037.2 1033.6L2013.46 1019.76L1999.09 1032.33L1979.07 999.636L1965.34 993.351L1960.36 985.798V969.432L1910.4 909.031L1908.51 898.327H1922.89L1940.38 883.235L1940.99 875.679L1936.01 870.659L1946.02 862.497L1967.26 863.763L2003.5 893.964L2024.88 892.994L2026.26 898.273L2044.09 905.135Z" fill="#787878"/>
<path d="M3147.36 1289.06L3151.84 1301.52L3159.74 1309.22L3162.13 1307.09L3161.34 1298.85L3152.37 1287.97L3147.36 1289.06Z" fill="#787878"/>
<path d="M3169.21 1307.63L3169.76 1315.87L3174.78 1320.64L3179.52 1317.71L3175.29 1308.92L3169.21 1307.63Z" fill="#787878"/>
<path d="M3175.53 1328.08L3171.3 1332.6L3175.78 1340.83L3181.05 1342.43L3180.8 1336.86L3175.53 1328.08Z" fill="#787878"/>
<path d="M3185.83 1323.31L3189.52 1332.34L3196.63 1340.83L3200.57 1334.47L3195.29 1325.44L3185.83 1323.31Z" fill="#787878"/>
<path d="M3204.29 1336.85L3206.38 1348.02L3211.41 1354.92L3215.64 1346.17L3204.29 1336.85Z" fill="#787878"/>
<path d="M3210.07 1361.82L3208.23 1365L3214.3 1372.99L3218.53 1373.25L3215.89 1362.87L3210.07 1361.82Z" fill="#787878"/>
<path d="M3196.63 1377.72L3190.3 1380.64L3195.83 1388.35L3200.57 1385.67L3196.63 1377.72Z" fill="#787878"/>
<path d="M2110.4 1284.83L2108.2 1289.27L2114.23 1294.26L2118.64 1289.27L2110.4 1284.83Z" fill="#787878"/>
<path d="M2141.21 1251.6L2134.6 1256.04L2139.56 1263.81H2146.17L2141.21 1251.6Z" fill="#787878"/>
<path d="M2143.96 1271L2139.55 1275.99L2142.83 1280.97L2148.86 1282.09L2149.41 1271.55L2143.96 1271Z" fill="#787878"/>
<path d="M1819.79 1101.63L1809.13 1095.34L1799.41 1076.16L1799.96 1058.31L1813.43 1046.72L1814.08 1003.97L1822.97 1004.23L1821.96 980.495L1915.17 981.322L1928.49 967.885L1957.25 1013.88L1941.5 1032.44V1060.8L1922.28 1102.14L1917.93 1111.75L1902.43 1089.53L1891.11 1103.91L1878.32 1107.4L1836.78 1103.22L1818.67 1109.66L1819.79 1101.63Z" fill="#787878"/>
<path d="M1732.39 368.073L1739.46 374.606H1752.73L1760.02 388.624L1762.02 412.647L1744.14 425.332V438.008L1731.53 455.386L1724.23 456.03L1714.29 472.722L1714.94 488.763L1732.18 501.448L1730.84 508.779L1724.23 518.792L1714.3 527.461L1714.94 556.182L1699.7 561.527L1694.39 572.866H1687.09L1683.12 552.851L1666.53 527.423L1680.16 504.624L1681.1 448.298L1690.49 443.132L1692.77 410.913L1719.54 372.579L1732.39 368.073Z" fill="#787878"/>
<path d="M1735.17 532.773L1727.55 538.804L1731.38 547.657L1738.14 541.082L1735.17 532.773Z" fill="#787878"/>
<path d="M2622.95 1196.38L2625.82 1198L2632.29 1197.47L2631.74 1192.6L2626.47 1193.43L2622.95 1196.38Z" fill="#787878"/>
<path d="M1721.84 683.855L1712.67 689.348L1695.54 693.101L1698.97 702.999L1710.97 703.141L1722.03 693.891L1721.84 683.855Z" fill="#787878"/>
<path d="M1725.6 666.297L1728.09 668.5L1728.41 672.253L1755.98 671.643L1776.36 662.857L1776.03 653.934L1772.13 655.669L1766.53 652.668L1763.1 652.522L1754.07 656.137L1741.79 653.174L1725.6 666.297Z" fill="#787878"/>
<path d="M1429.68 1121.5L1450.09 1141.23L1464.65 1123.56L1455.54 1109.29L1443.01 1110.56L1429.68 1121.5Z" fill="#787878"/>
<path d="M1428.09 1075.45L1403.88 1074.86L1408.36 1085.74L1410.86 1079.02L1441.24 1082.2L1444.61 1082.09L1458.84 1082.59L1459.35 1076.3L1446.35 1060.7L1431.86 1041.09L1422.86 1037.33L1415.92 1039.1L1401.69 1049.44L1398.45 1055.22L1397.44 1061L1402.67 1064.76L1420.16 1064.5L1431.4 1061.46L1432.66 1066.99L1431.66 1074.28L1428.09 1075.45Z" fill="#787878"/>
<path d="M2072.89 1088.7L2088.68 1082.63L2094.28 1085.99L2093.66 1100.01L2079.11 1141.48L2000.31 1225.86L1991.17 1219.58L1990.56 1183.97L2002.4 1170.34L2027.56 1162.58L2064.44 1123.64L2074.09 1115.04L2076.79 1102.46L2072.89 1088.7Z" fill="#787878"/>
<path d="M993.264 1150.44L1000.63 1157.2L1012.05 1150.12L1022.45 1150.44L1021.12 1154.49L1016.74 1163.6L1016.06 1186.25L995.287 1194.7L996.298 1180.18L982.895 1167.67L983.58 1161.25L993.264 1150.44Z" fill="#787878"/>
<path d="M1916.72 1114.1L1908.19 1117.85L1910.9 1132.7H1921.52L1935.93 1153.62L1924.37 1155.1L1921.4 1160.48L1921.11 1168.24L1886.43 1167.63L1882.89 1162.25L1858.65 1160.88L1814.14 1115.06L1818.58 1112.39L1837.46 1106.68L1878.83 1109.84L1892.89 1106.68L1902.24 1094.16L1916.72 1114.1Z" fill="#787878"/>
<path d="M1634.92 1208.28L1639.07 1206.18L1642.17 1208.71L1639.07 1213.51L1635.31 1212.03L1634.92 1208.28Z" fill="#787878"/>
<path d="M1643.26 1195.09L1649.51 1194.04L1651.61 1198.02L1648.5 1201.38L1645.4 1200.95L1643.26 1195.09Z" fill="#787878"/>
<path d="M662.771 1060.59L679.75 1069.05L679.495 1055.64L670.788 1050.33L662.771 1060.59Z" fill="#787878"/>
<path d="M1909.23 818.032L1907.97 827.21L1918.16 831.477L1917.72 856.913L1927.91 856.691L1938.1 848.993L1941.93 848.345L1965.05 829.964L1969.7 803.257L1923.5 807.959L1918.62 818.654L1909.23 818.032Z" fill="#787878"/>
<path d="M1888.28 1485.92L1879.21 1487.43L1875.3 1498.09L1882.24 1504.42H1890.66L1897.78 1494.2L1888.28 1485.92Z" fill="#787878"/>
<path d="M1714.58 1059.62L1715.05 1048.95L1732.18 1032.3L1736.77 991.407L1725.35 969.586L1733.34 965.495L1810.65 1005.78L1810.18 1045.3L1796.56 1056.9V1077.27L1805.49 1094.54H1789.73L1763.65 1120.34L1762.96 1128.15L1743.71 1127.89L1743.46 1131.43L1732.48 1129.98L1724.96 1115.79L1719.32 1113L1720.04 1108.67L1727.12 1103.25V1077.9L1717.33 1076.38L1705.51 1067.59L1714.58 1059.62Z" fill="#787878"/>
<path d="M1578.85 1150.84L1588.53 1145.17L1588.31 1107.78L1582.02 1097.59L1577.98 1100.99L1578.85 1150.84Z" fill="#787878"/>
<path d="M2571.67 967.383L2583.37 982.446V1000.77L2587.41 1002.78L2606.02 993.822L2609.67 995.051L2631.89 1020.7L2631.09 1038.22L2623.83 1037L2617.36 1032.9L2612.52 1033.31L2604.04 1047.54L2605.67 1055.27L2612.53 1058.92L2612.13 1067.48L2607.3 1069.94L2590.7 1058.53V1048.34L2583.84 1047.94L2581.02 1052.41L2579.57 1098.01L2590.3 1117.59L2609.31 1135.91L2608.52 1141.22L2598.39 1140.83L2589.11 1126.99H2579.39L2567.26 1117.19L2563.61 1107.01L2568.85 1098.44L2570.66 1090.71L2576.37 1080.59L2576.11 1057.33L2562.17 1037.17L2561.58 1034.71L2566.1 1030.16L2565.05 1014.15L2546.49 990.637L2548.66 977.092L2571.67 967.383Z" fill="#787878"/>
<path d="M2210.97 755.565L2225.81 737.142H2231.41L2233.37 741.255L2226.5 746.237V750.354L2231.02 753.601L2252.73 754.905L2259.81 751.867L2263.03 752.51L2265.2 759.448L2278.09 760.752L2284.56 774.406L2282.61 778.523L2280.05 778.745L2277.49 773.541L2271.88 773.107L2262.21 774.411L2261.56 783.522L2251.88 782.874L2252.31 771.38L2245.23 764.451L2234.47 773.332L2234.69 779.183L2225.22 782.435H2219.62L2220.05 762.273L2210.97 755.565Z" fill="#787878"/>
<path d="M2079.68 740.215L2077.45 749.715H2062.45V762.579L2078.56 773.199L2073.58 787.752V794.472L2080.26 795.596L2089.15 783.848L2109.17 779.376L2151.94 795.596L2152.48 807.336L2176.36 809.577L2203.03 781.583L2199.7 772.618L2181.92 768.71L2131.92 736.232L2129.68 724.487H2110.79L2102.44 740.173H2094.1L2079.68 740.215Z" fill="#787878"/>
<path d="M1649.99 811.528L1669.96 803.474L1676.53 807.737L1676.79 812.937L1673.72 816.945L1674.18 824.062L1677.26 825.717V838.511L1673.72 844.437L1674.18 848.232L1687.58 852.963L1676.78 869.765L1672.55 869.51L1671.83 883.017L1667.13 883.745L1663.13 880.196L1664.07 866.471L1650.92 853.678L1649.26 842.552L1655.62 837.57L1649.99 811.528Z" fill="#787878"/>
<path d="M1847.66 754.195L1838.02 748.235L1832.71 744.001L1823.78 747.829L1817.6 763.461L1826.88 761.371L1833.4 756.406L1847.77 760.326L1839.64 768.171L1818.01 767.126L1810.03 775.873V780.141L1815.13 784.408V789.101L1812.99 794.668L1815.13 799.362L1821.92 795.968L1828.71 803.228L1827.01 808.36L1824.49 811.787L1828.28 816.055L1846.93 819.883L1860.04 814.32V806.225L1866.4 807.491L1881.65 816.452L1898.15 813.885L1905.34 807.06L1910 808.757V816.452H1916.35L1921.84 805.794L1970.11 800.658L1991.17 798.096L1985.61 790.798L1985.51 780.939L1989.73 775.882L1974.34 763.527L1975.17 752.866H1966.72L1952.7 745.999L1944.64 754.529L1915.01 753.656L1897.24 743.002L1880.18 744.532L1861.19 755.938L1847.66 754.195Z" fill="#787878"/>
<path d="M953.92 1091.33L950.087 1094.87L945.932 1095.52V1100.65L953.594 1107.71L956.771 1102.57L958.685 1096.79L958.033 1091.99L953.92 1091.33Z" fill="#787878"/>
<path d="M2779.15 887.326L2766.36 897.082L2765.68 915.866L2776.74 928.731L2779.48 926.307L2779.15 887.326Z" fill="#787878"/>
<path d="M1928.77 1331.42L1986.44 1324.36L1972.25 1296.9L1971.49 1270.61L1976.07 1258.03L1916.03 1220.32L1897.21 1223.43L1890.68 1228.27L1890.1 1239.29L1885.87 1254.57L1881.46 1259.8L1875.13 1260.39L1886.87 1299.75L1907 1311.62L1924.53 1312.03L1928.77 1331.42Z" fill="#787878"/>
<path d="M1796.88 615.793L1786.4 621.681L1789 632.811L1779.32 653.224L1779.4 662.214L1783.95 665.102L1813.14 666.548L1821.31 659.798L1830.05 662.719L1842.58 679.445L1833.41 695.921L1844.32 699.101L1858.59 682.664L1866.76 684.143L1874.34 689.418L1867.65 698.232L1876.68 712.321H1886.29L1891.24 702.926L1901.43 700.861L1901.72 693.242L1882.79 690.316L1883.38 682.112H1901.73L1921.53 666.255L1930.27 658.632L1931.71 634.571L1892.69 631.069L1876.69 608.491L1865.63 604.696L1852.23 605.277L1846.2 620.194L1818.74 620.557L1809.82 616.436L1796.88 615.793Z" fill="#787878"/>
<path d="M1879 1215.29L1889.94 1225.54L1896.81 1221.18L1915.38 1218.13L1918.56 1218.46L1919.75 1211.41L1930.23 1189.38L1921.42 1171.02L1892.84 1171.2L1892.66 1178.76L1896.49 1182.45L1895.91 1190L1879 1215.29Z" fill="#787878"/>
<path d="M471.693 562.288L468.078 576.812L455.468 568.645H449.183L445.567 584.071L401.458 682.915L413.164 769.037L427.579 776.296L430.287 799.889H459.982L488.774 821.639L545.456 827.093L551.742 856.103L560.736 862.46L573.345 849.783L583.246 854.297L592.24 895.991L607.52 905.963L620.13 882.37L658.823 854.259L684.004 866.033L705.608 867.843L706.51 854.259L751.49 855.166L760.484 865.139L762.289 887.791L756.906 900.472L763.192 922.217H776.704L790.212 901.374L784.829 891.402L779.446 869.652L787.537 845.161L824.425 813.439L852.314 805.276L848.703 778.975L887.396 737.252L926.09 730.895L919.804 709.191L957.594 687.437V658.432L953.979 656.622L940.467 661.144L938.661 678.915L893.753 679.455L858.567 702.834L803.327 720.898L794.513 710.09L819.585 672.157L807.193 660.346L798.776 644.305L781.326 630.288L762.36 628.699L726.522 604.241L471.693 562.288Z" fill="#787878"/>
<path d="M184.156 182.983L196.658 206.365L204.679 204.559V196.458L184.156 182.983Z" fill="#787878"/>
<path d="M113.67 388.587L113.055 399.462L120.859 397.657V392.817L113.67 388.587Z" fill="#787878"/>
<path d="M101.68 393.426L86.0728 401.305L88.4929 409.757L94.491 404.917L106.487 399.458L101.68 393.426Z" fill="#787878"/>
<path d="M36.832 403.691L26.0313 401.271L24.2256 406.111L25.4168 415.178L36.832 403.691Z" fill="#787878"/>
<path d="M13.9996 403.106L3.77572 398.885L0.160156 405.53L6.77267 412.181L13.9996 403.106Z" fill="#787878"/>
<path d="M270.646 152.422L240.336 159.615L246.589 193.753L279.573 202.743L281.341 209.932L232.316 225.216L204.677 271.022L214.47 319.541L230.51 330.308L243.011 318.635L246.589 325.827L231.417 343.782L172.563 370.735L135.098 379.725L134.195 393.204L220.685 368.061L256.344 358.16L289.328 317.728L325.889 293.487L307.174 324.92L327.695 327.625L362.485 312.344L368.737 337.492L392.798 342.875L417.762 367.116L419.53 385.071L415.956 389.551L420.399 406.603H426.651L427.554 377.845H434.672L436.44 448.799L454.29 433.515L441.789 359.852H423.074L402.553 333.81L503.311 163.105L403.456 84.9664L292.003 106.536L287.56 140.674L311.621 155.047L302.698 178.427L270.646 152.422Z" fill="#787878"/>
<path d="M1019.38 1550.69L1011.97 1558.61L1015.04 1601.17L1038.31 1607.92L1067.9 1578.25L1019.38 1550.69Z" fill="#787878"/>
<path d="M2206.38 781.658L2217.51 782.235V763.193L2206.97 757.05L2224.74 734.656H2231.97L2239.2 743.078L2258.09 735.814L2231.97 726.853L2230.96 721.432L2224.75 722.95L2218.64 733.57L2192.31 732.704L2172.98 705.358L2139.02 708.714L2122.84 692.674L2100.44 688.887L2084.18 695.499L2093.61 726.853L2093.71 737.402L2100.58 737.548L2109 721.504L2131.39 721.788L2134.72 734.105L2182.73 765.973L2201.3 770.24L2206.38 781.658Z" fill="#787878"/>
<path d="M953.305 1066.3L948.862 1069.52L952.369 1075.95L958.112 1072.73L953.305 1066.3Z" fill="#787878"/>
<path d="M947.884 1078.8L943.729 1082.95L945.318 1085.51H950.413L952.001 1081.32L947.884 1078.8Z" fill="#787878"/>
<path d="M839.109 1095.45L840.697 1104.81L852.437 1108.54L855.112 1091.3L867.504 1078.48L879.896 1093.01L908.4 1100.77L932.532 1095.71L948.97 1115.98L961.362 1123.74L947.779 1144.45L952.33 1160.13L944.565 1169.74L936.507 1176.49L919.058 1167.7L915.05 1171.75V1184.25L927.805 1190.32L918.41 1200.47L909.014 1210.63L896.622 1209.62L884.159 1195.93L881.522 1144.42L838.963 1129.89L831.231 1107.24L839.109 1095.45Z" fill="#787878"/>
<path d="M2625.96 1090.14L2630.26 1096.9L2631.05 1104.63L2642.36 1105.86L2656.09 1087.54L2669.02 1083.89L2675.89 1065.18L2672.67 1035.05L2659.34 1016.73L2645.29 1005.49L2627.41 974.776L2640.23 953.315L2621.87 932.255L2607.17 931.611L2593.95 938.725L2597.89 955.739L2615.52 958.844L2620.25 971.959L2614.04 976.009L2614.44 979.257L2655.8 1019.73L2657.42 1031.61L2654.94 1069.18L2625.96 1090.14Z" fill="#787878"/>
<path d="M3261.12 1425.3L3256.64 1431.3L3258.52 1438.05L3260.76 1439.57L3264.85 1434.29L3261.12 1425.3Z" fill="#787878"/>
<path d="M3263.36 1443.69L3263.72 1448.57L3268.56 1450.08L3271.93 1448.21L3268.56 1442.92L3263.36 1443.69Z" fill="#787878"/>
<path d="M3270.44 1487.26L3268.2 1490.65L3271.56 1494.4L3277.16 1492.53L3270.44 1487.26Z" fill="#787878"/>
<path d="M2000.71 1035.16L2005.91 1050.62V1065.72L2018.41 1077.06L2106.49 1041.19L2107.31 1031.33L2093.18 1005.97L2057.74 1017.28L2037.41 1037.29L2013.81 1023.35L2000.71 1035.16Z" fill="#787878"/>
<path d="M2100.53 1072.8L2108.22 1081.41L2118.63 1075.12L2122.38 1073.85L2117.61 1069.23L2108.46 1071.94L2100.53 1072.8Z" fill="#787878"/>
<path d="M1864.04 1448.46L1835.5 1474.83L1828.7 1491.13L1806.09 1488.31L1787.27 1505.03L1774.77 1503.81L1775.78 1480.69L1771.34 1479.13L1768.23 1526.42L1746.05 1526.2L1739.36 1518.32L1729.56 1518.22L1738.49 1543.84L1754.43 1558.9L1743.05 1572.16L1750.42 1588.78L1767.47 1595.29L1781.05 1583.73L1819.97 1583.95L1822.76 1580.48L1840.03 1577.44L1898.45 1519.27L1898.22 1500.96L1891.98 1509.05H1882.62L1871.24 1499.51L1877.02 1485.14L1886.96 1483.12L1886.05 1453.57L1864.04 1448.46ZM1850.34 1515.29L1855.8 1515.07L1864.65 1524.68L1864.4 1535.81L1854.03 1541.04L1853.38 1544.74L1837.56 1544.92L1832.61 1532.99L1837.12 1524.25L1850.34 1515.29Z" fill="#787878"/>
<path d="M1793.19 1380.07L1804.64 1395.96L1822.38 1397.05L1828.66 1400.51L1847.23 1400.73L1863.23 1378.3L1907.96 1358.29L1911.87 1340.65L1906.67 1315.4L1883.33 1302.1L1867.75 1303.19L1859.99 1320.38L1860.21 1328.22L1878.56 1337.15L1879.65 1356.55L1863.87 1357.42L1859.97 1350.89L1816.1 1332.17L1814.8 1346.54L1794.06 1347.19L1793.19 1380.07Z" fill="#787878"/>
<path d="M1829.72 1407.52L1862.13 1444.12L1886.98 1450.45L1903.63 1424.33L1902.33 1389.72L1875.31 1375.78L1865.15 1380.37L1850.02 1403.45L1829.06 1403.23L1829.72 1407.52Z" fill="#787878"/>
</svg>
